%
M48
M72
T01C0.0160
T02C0.0240
T03C0.0320
T04C0.0360
T05C0.0400
T06C0.0560
T07C0.0660
T08C0.1250
T09C0.1280
%
T01
X7050Y5150
X7050Y7025
X11025Y4400
X11025Y3525
X18275Y8275
X18650Y7900
X20525Y7400
X20900Y7025
X26025Y7400
X26400Y7025
X27400Y7900
X27650Y8275
X27275Y8650
X27650Y9025
X27275Y9400
X27650Y9775
X28525Y10275
X28525Y11025
X29087Y11016
X29599Y11174
X30859Y8339
X30859Y7315
X31410Y5819
X30544Y5189
X33275Y6525
X33275Y8525
X35025Y10525
X36025Y10525
X37275Y8525
X38400Y8525
X38400Y7838
X38400Y7150
X40525Y7150
X32650Y2400
X27079Y5085
X27079Y6370
X21400Y11650
X19150Y13025
X18150Y12650
X14150Y13275
X13150Y13400
X12150Y13900
X11400Y14650
X15150Y16525
X16150Y16150
X17150Y15775
X20150Y19900
X14150Y20775
X10150Y19900
X9400Y19275
X7100Y20200
X6400Y19275
X5375Y19150
X8550Y21550
X20150Y24775
X28400Y25400
X30400Y25400
X31400Y25400
X31400Y23150
X32150Y20900
X33400Y19400
X31900Y18775
X30900Y18025
X29025Y16775
X32775Y16275
X28900Y19650
X28900Y20400
X35525Y19900
X15275Y8650
X14775Y9025
X14275Y9400
X13650Y9775
X19150Y3525
T02
X14150Y21650
X12150Y23900
X10400Y26400
X9900Y26400
X7900Y24400
X17525Y24400
X17525Y24900
X17525Y25400
T03
X20150Y22150
X20150Y21150
X22025Y21150
X22025Y22150
X20150Y17650
X19150Y17650
X18150Y17650
X17150Y17650
X16150Y17650
X15150Y17650
X14150Y17650
X13150Y17650
X12150Y17650
X11150Y17650
X10150Y17650
X9150Y17650
X8150Y17650
X7150Y17650
X7150Y11650
X8150Y11650
X9150Y11650
X10150Y11650
X11150Y11650
X12150Y11650
X13150Y11650
X14150Y11650
X15150Y11650
X16150Y11650
X17150Y11650
X18150Y11650
X19150Y11650
X20150Y11650
X34150Y4525
X34150Y3525
T04
X34400Y11400
X33400Y11400
X33400Y12400
X34400Y12400
X19650Y6150
X18650Y6150
X17650Y6150
X16650Y6150
X15650Y6150
X15650Y5150
X16650Y5150
X17650Y5150
X18650Y5150
X19650Y5150
T05
X32900Y17275
X33900Y17275
X34900Y17275
X34900Y18275
X33900Y18275
X32900Y18275
X37810Y18740
X37810Y19830
X38900Y19285
X38900Y18195
X38900Y17105
X37810Y16560
X37810Y17650
X38900Y16015
X37810Y15470
X26040Y20370
X24260Y20370
X24260Y22930
X26040Y22930
T06
X25275Y25025
X23275Y26150
X25275Y27400
T07
X22025Y14650
X3900Y14650
T08
X1525Y2087
X29025Y2088
X29025Y27087
X1525Y27087
T09
X38355Y22555
X38355Y12745
M30
