G75*
G70*
%OFA0B0*%
%FSLAX24Y24*%
%IPPOS*%
%LPD*%
%AMOC8*
5,1,8,0,0,1.08239X$1,22.5*
%
%ADD10C,0.0202*%
%ADD11C,0.0198*%
D10*
X016594Y002430D02*
X016706Y002430D01*
X016706Y002120D01*
X016594Y002120D01*
X016594Y002430D01*
X016594Y002321D02*
X016706Y002321D01*
X017094Y002430D02*
X017206Y002430D01*
X017206Y002120D01*
X017094Y002120D01*
X017094Y002430D01*
X017094Y002321D02*
X017206Y002321D01*
X017594Y002430D02*
X017706Y002430D01*
X017706Y002120D01*
X017594Y002120D01*
X017594Y002430D01*
X017594Y002321D02*
X017706Y002321D01*
X018094Y002430D02*
X018206Y002430D01*
X018206Y002120D01*
X018094Y002120D01*
X018094Y002430D01*
X018094Y002321D02*
X018206Y002321D01*
X018206Y003680D02*
X018094Y003680D01*
X018206Y003680D02*
X018206Y003370D01*
X018094Y003370D01*
X018094Y003680D01*
X018094Y003571D02*
X018206Y003571D01*
X017706Y003680D02*
X017594Y003680D01*
X017706Y003680D02*
X017706Y003370D01*
X017594Y003370D01*
X017594Y003680D01*
X017594Y003571D02*
X017706Y003571D01*
X017206Y003680D02*
X017094Y003680D01*
X017206Y003680D02*
X017206Y003370D01*
X017094Y003370D01*
X017094Y003680D01*
X017094Y003571D02*
X017206Y003571D01*
X016706Y003680D02*
X016594Y003680D01*
X016706Y003680D02*
X016706Y003370D01*
X016594Y003370D01*
X016594Y003680D01*
X016594Y003571D02*
X016706Y003571D01*
D11*
X013162Y008493D02*
X012888Y008493D01*
X012888Y008807D01*
X013162Y008807D01*
X013162Y008493D01*
X013162Y008690D02*
X012888Y008690D01*
X013638Y008493D02*
X013912Y008493D01*
X013638Y008493D02*
X013638Y008807D01*
X013912Y008807D01*
X013912Y008493D01*
X013912Y008690D02*
X013638Y008690D01*
X015763Y007432D02*
X016037Y007432D01*
X016037Y007118D01*
X015763Y007118D01*
X015763Y007432D01*
X015763Y007315D02*
X016037Y007315D01*
X016513Y007432D02*
X016787Y007432D01*
X016787Y007118D01*
X016513Y007118D01*
X016513Y007432D01*
X016513Y007315D02*
X016787Y007315D01*
X026169Y005873D02*
X026443Y005873D01*
X026443Y005559D01*
X026169Y005559D01*
X026169Y005873D01*
X026169Y005756D02*
X026443Y005756D01*
X026919Y005873D02*
X027193Y005873D01*
X027193Y005559D01*
X026919Y005559D01*
X026919Y005873D01*
X026919Y005756D02*
X027193Y005756D01*
X031292Y006508D02*
X031566Y006508D01*
X031566Y006194D01*
X031292Y006194D01*
X031292Y006508D01*
X031292Y006391D02*
X031566Y006391D01*
X032042Y006508D02*
X032316Y006508D01*
X032316Y006194D01*
X032042Y006194D01*
X032042Y006508D01*
X032042Y006391D02*
X032316Y006391D01*
X032316Y007472D02*
X032042Y007472D01*
X032316Y007472D02*
X032316Y007158D01*
X032042Y007158D01*
X032042Y007472D01*
X032042Y007355D02*
X032316Y007355D01*
X031566Y007472D02*
X031292Y007472D01*
X031566Y007472D02*
X031566Y007158D01*
X031292Y007158D01*
X031292Y007472D01*
X031292Y007355D02*
X031566Y007355D01*
X031566Y008496D02*
X031292Y008496D01*
X031566Y008496D02*
X031566Y008182D01*
X031292Y008182D01*
X031292Y008496D01*
X031292Y008379D02*
X031566Y008379D01*
X032042Y008496D02*
X032316Y008496D01*
X032316Y008182D01*
X032042Y008182D01*
X032042Y008496D01*
X032042Y008379D02*
X032316Y008379D01*
X031075Y011017D02*
X030801Y011017D01*
X030801Y011331D01*
X031075Y011331D01*
X031075Y011017D01*
X031075Y011214D02*
X030801Y011214D01*
X030325Y011017D02*
X030051Y011017D01*
X030051Y011331D01*
X030325Y011331D01*
X030325Y011017D01*
X030325Y011214D02*
X030051Y011214D01*
X034763Y016432D02*
X035037Y016432D01*
X035037Y016118D01*
X034763Y016118D01*
X034763Y016432D01*
X034763Y016315D02*
X035037Y016315D01*
X035513Y016432D02*
X035787Y016432D01*
X035787Y016118D01*
X035513Y016118D01*
X035513Y016432D01*
X035513Y016315D02*
X035787Y016315D01*
X031412Y018932D02*
X031138Y018932D01*
X031412Y018932D02*
X031412Y018618D01*
X031138Y018618D01*
X031138Y018932D01*
X031138Y018815D02*
X031412Y018815D01*
X030662Y018932D02*
X030388Y018932D01*
X030662Y018932D02*
X030662Y018618D01*
X030388Y018618D01*
X030388Y018932D01*
X030388Y018815D02*
X030662Y018815D01*
X038263Y009307D02*
X038537Y009307D01*
X038537Y008993D01*
X038263Y008993D01*
X038263Y009307D01*
X038263Y009190D02*
X038537Y009190D01*
X039013Y009307D02*
X039287Y009307D01*
X039287Y008993D01*
X039013Y008993D01*
X039013Y009307D01*
X039013Y009190D02*
X039287Y009190D01*
X039497Y007916D02*
X039653Y007916D01*
X039653Y007760D01*
X039497Y007760D01*
X039497Y007916D01*
X039053Y007916D02*
X038897Y007916D01*
X039053Y007916D02*
X039053Y007760D01*
X038897Y007760D01*
X038897Y007916D01*
X038897Y007228D02*
X039053Y007228D01*
X039053Y007072D01*
X038897Y007072D01*
X038897Y007228D01*
X039497Y007228D02*
X039653Y007228D01*
X039653Y007072D01*
X039497Y007072D01*
X039497Y007228D01*
X040388Y007618D02*
X040662Y007618D01*
X040388Y007618D02*
X040388Y007932D01*
X040662Y007932D01*
X040662Y007618D01*
X040662Y007815D02*
X040388Y007815D01*
X041138Y007618D02*
X041412Y007618D01*
X041138Y007618D02*
X041138Y007932D01*
X041412Y007932D01*
X041412Y007618D01*
X041412Y007815D02*
X041138Y007815D01*
M02*
