G75*
G70*
%OFA0B0*%
%FSLAX24Y24*%
%IPPOS*%
%LPD*%
%AMOC8*
5,1,8,0,0,1.08239X$1,22.5*
%
%ADD10C,0.0100*%
%ADD11C,0.0000*%
%ADD12C,0.0080*%
%ADD13C,0.0250*%
%ADD14C,0.0070*%
D10*
X000150Y000150D02*
X000150Y029025D01*
X036525Y029025D01*
X036525Y025525D01*
X042150Y025525D01*
X042150Y003650D01*
X036525Y003650D01*
X036525Y000150D01*
X000150Y000150D01*
X019658Y021059D02*
X019618Y021095D01*
X019580Y021134D01*
X019545Y021175D01*
X019513Y021219D01*
X019485Y021264D01*
X019459Y021312D01*
X019437Y021361D01*
X019419Y021411D01*
X019404Y021463D01*
X019393Y021516D01*
X019385Y021569D01*
X019381Y021623D01*
X019381Y021677D01*
X019385Y021731D01*
X019393Y021784D01*
X019404Y021837D01*
X019419Y021889D01*
X019437Y021939D01*
X019459Y021988D01*
X019485Y022036D01*
X019513Y022081D01*
X019545Y022125D01*
X019580Y022166D01*
X019618Y022205D01*
X019658Y022241D01*
X020642Y022241D02*
X020682Y022205D01*
X020720Y022166D01*
X020755Y022125D01*
X020787Y022081D01*
X020815Y022036D01*
X020841Y021988D01*
X020863Y021939D01*
X020881Y021889D01*
X020896Y021837D01*
X020907Y021784D01*
X020915Y021731D01*
X020919Y021677D01*
X020919Y021623D01*
X020915Y021569D01*
X020907Y021516D01*
X020896Y021463D01*
X020881Y021411D01*
X020863Y021361D01*
X020841Y021312D01*
X020815Y021264D01*
X020787Y021219D01*
X020755Y021175D01*
X020720Y021134D01*
X020682Y021095D01*
X020642Y021059D01*
X021533Y021059D02*
X021493Y021095D01*
X021455Y021134D01*
X021420Y021175D01*
X021388Y021219D01*
X021360Y021264D01*
X021334Y021312D01*
X021312Y021361D01*
X021294Y021411D01*
X021279Y021463D01*
X021268Y021516D01*
X021260Y021569D01*
X021256Y021623D01*
X021256Y021677D01*
X021260Y021731D01*
X021268Y021784D01*
X021279Y021837D01*
X021294Y021889D01*
X021312Y021939D01*
X021334Y021988D01*
X021360Y022036D01*
X021388Y022081D01*
X021420Y022125D01*
X021455Y022166D01*
X021493Y022205D01*
X021533Y022241D01*
X022517Y022241D02*
X022557Y022205D01*
X022595Y022166D01*
X022630Y022125D01*
X022662Y022081D01*
X022690Y022036D01*
X022716Y021988D01*
X022738Y021939D01*
X022756Y021889D01*
X022771Y021837D01*
X022782Y021784D01*
X022790Y021731D01*
X022794Y021677D01*
X022794Y021623D01*
X022790Y021569D01*
X022782Y021516D01*
X022771Y021463D01*
X022756Y021411D01*
X022738Y021361D01*
X022716Y021312D01*
X022690Y021264D01*
X022662Y021219D01*
X022630Y021175D01*
X022595Y021134D01*
X022557Y021095D01*
X022517Y021059D01*
X033658Y004616D02*
X033618Y004580D01*
X033580Y004541D01*
X033545Y004500D01*
X033513Y004456D01*
X033485Y004411D01*
X033459Y004363D01*
X033437Y004314D01*
X033419Y004264D01*
X033404Y004212D01*
X033393Y004159D01*
X033385Y004106D01*
X033381Y004052D01*
X033381Y003998D01*
X033385Y003944D01*
X033393Y003891D01*
X033404Y003838D01*
X033419Y003786D01*
X033437Y003736D01*
X033459Y003687D01*
X033485Y003639D01*
X033513Y003594D01*
X033545Y003550D01*
X033580Y003509D01*
X033618Y003470D01*
X033658Y003434D01*
X034642Y003434D02*
X034682Y003470D01*
X034720Y003509D01*
X034755Y003550D01*
X034787Y003594D01*
X034815Y003639D01*
X034841Y003687D01*
X034863Y003736D01*
X034881Y003786D01*
X034896Y003838D01*
X034907Y003891D01*
X034915Y003944D01*
X034919Y003998D01*
X034919Y004052D01*
X034915Y004106D01*
X034907Y004159D01*
X034896Y004212D01*
X034881Y004264D01*
X034863Y004314D01*
X034841Y004363D01*
X034815Y004411D01*
X034787Y004456D01*
X034755Y004500D01*
X034720Y004541D01*
X034682Y004580D01*
X034642Y004616D01*
D11*
X028400Y002088D02*
X028402Y002138D01*
X028408Y002187D01*
X028418Y002236D01*
X028431Y002283D01*
X028449Y002330D01*
X028470Y002375D01*
X028494Y002418D01*
X028522Y002459D01*
X028553Y002498D01*
X028587Y002534D01*
X028624Y002568D01*
X028664Y002598D01*
X028705Y002625D01*
X028749Y002649D01*
X028794Y002669D01*
X028841Y002685D01*
X028889Y002698D01*
X028938Y002707D01*
X028988Y002712D01*
X029037Y002713D01*
X029087Y002710D01*
X029136Y002703D01*
X029185Y002692D01*
X029232Y002678D01*
X029278Y002659D01*
X029323Y002637D01*
X029366Y002612D01*
X029406Y002583D01*
X029444Y002551D01*
X029480Y002517D01*
X029513Y002479D01*
X029542Y002439D01*
X029568Y002397D01*
X029591Y002353D01*
X029610Y002307D01*
X029626Y002260D01*
X029638Y002211D01*
X029646Y002162D01*
X029650Y002113D01*
X029650Y002063D01*
X029646Y002014D01*
X029638Y001965D01*
X029626Y001916D01*
X029610Y001869D01*
X029591Y001823D01*
X029568Y001779D01*
X029542Y001737D01*
X029513Y001697D01*
X029480Y001659D01*
X029444Y001625D01*
X029406Y001593D01*
X029366Y001564D01*
X029323Y001539D01*
X029278Y001517D01*
X029232Y001498D01*
X029185Y001484D01*
X029136Y001473D01*
X029087Y001466D01*
X029037Y001463D01*
X028988Y001464D01*
X028938Y001469D01*
X028889Y001478D01*
X028841Y001491D01*
X028794Y001507D01*
X028749Y001527D01*
X028705Y001551D01*
X028664Y001578D01*
X028624Y001608D01*
X028587Y001642D01*
X028553Y001678D01*
X028522Y001717D01*
X028494Y001758D01*
X028470Y001801D01*
X028449Y001846D01*
X028431Y001893D01*
X028418Y001940D01*
X028408Y001989D01*
X028402Y002038D01*
X028400Y002088D01*
X021695Y014650D02*
X021697Y014686D01*
X021703Y014721D01*
X021712Y014755D01*
X021726Y014789D01*
X021742Y014820D01*
X021762Y014850D01*
X021785Y014877D01*
X021811Y014902D01*
X021840Y014923D01*
X021870Y014942D01*
X021903Y014957D01*
X021937Y014968D01*
X021972Y014976D01*
X022007Y014980D01*
X022043Y014980D01*
X022078Y014976D01*
X022113Y014968D01*
X022147Y014957D01*
X022180Y014942D01*
X022210Y014923D01*
X022239Y014902D01*
X022265Y014877D01*
X022288Y014850D01*
X022308Y014820D01*
X022324Y014789D01*
X022338Y014755D01*
X022347Y014721D01*
X022353Y014686D01*
X022355Y014650D01*
X022353Y014614D01*
X022347Y014579D01*
X022338Y014545D01*
X022324Y014511D01*
X022308Y014480D01*
X022288Y014450D01*
X022265Y014423D01*
X022239Y014398D01*
X022210Y014377D01*
X022180Y014358D01*
X022147Y014343D01*
X022113Y014332D01*
X022078Y014324D01*
X022043Y014320D01*
X022007Y014320D01*
X021972Y014324D01*
X021937Y014332D01*
X021903Y014343D01*
X021870Y014358D01*
X021840Y014377D01*
X021811Y014398D01*
X021785Y014423D01*
X021762Y014450D01*
X021742Y014480D01*
X021726Y014511D01*
X021712Y014545D01*
X021703Y014579D01*
X021697Y014614D01*
X021695Y014650D01*
X003570Y014650D02*
X003572Y014686D01*
X003578Y014721D01*
X003587Y014755D01*
X003601Y014789D01*
X003617Y014820D01*
X003637Y014850D01*
X003660Y014877D01*
X003686Y014902D01*
X003715Y014923D01*
X003745Y014942D01*
X003778Y014957D01*
X003812Y014968D01*
X003847Y014976D01*
X003882Y014980D01*
X003918Y014980D01*
X003953Y014976D01*
X003988Y014968D01*
X004022Y014957D01*
X004055Y014942D01*
X004085Y014923D01*
X004114Y014902D01*
X004140Y014877D01*
X004163Y014850D01*
X004183Y014820D01*
X004199Y014789D01*
X004213Y014755D01*
X004222Y014721D01*
X004228Y014686D01*
X004230Y014650D01*
X004228Y014614D01*
X004222Y014579D01*
X004213Y014545D01*
X004199Y014511D01*
X004183Y014480D01*
X004163Y014450D01*
X004140Y014423D01*
X004114Y014398D01*
X004085Y014377D01*
X004055Y014358D01*
X004022Y014343D01*
X003988Y014332D01*
X003953Y014324D01*
X003918Y014320D01*
X003882Y014320D01*
X003847Y014324D01*
X003812Y014332D01*
X003778Y014343D01*
X003745Y014358D01*
X003715Y014377D01*
X003686Y014398D01*
X003660Y014423D01*
X003637Y014450D01*
X003617Y014480D01*
X003601Y014511D01*
X003587Y014545D01*
X003578Y014579D01*
X003572Y014614D01*
X003570Y014650D01*
X000900Y027087D02*
X000902Y027137D01*
X000908Y027186D01*
X000918Y027235D01*
X000931Y027282D01*
X000949Y027329D01*
X000970Y027374D01*
X000994Y027417D01*
X001022Y027458D01*
X001053Y027497D01*
X001087Y027533D01*
X001124Y027567D01*
X001164Y027597D01*
X001205Y027624D01*
X001249Y027648D01*
X001294Y027668D01*
X001341Y027684D01*
X001389Y027697D01*
X001438Y027706D01*
X001488Y027711D01*
X001537Y027712D01*
X001587Y027709D01*
X001636Y027702D01*
X001685Y027691D01*
X001732Y027677D01*
X001778Y027658D01*
X001823Y027636D01*
X001866Y027611D01*
X001906Y027582D01*
X001944Y027550D01*
X001980Y027516D01*
X002013Y027478D01*
X002042Y027438D01*
X002068Y027396D01*
X002091Y027352D01*
X002110Y027306D01*
X002126Y027259D01*
X002138Y027210D01*
X002146Y027161D01*
X002150Y027112D01*
X002150Y027062D01*
X002146Y027013D01*
X002138Y026964D01*
X002126Y026915D01*
X002110Y026868D01*
X002091Y026822D01*
X002068Y026778D01*
X002042Y026736D01*
X002013Y026696D01*
X001980Y026658D01*
X001944Y026624D01*
X001906Y026592D01*
X001866Y026563D01*
X001823Y026538D01*
X001778Y026516D01*
X001732Y026497D01*
X001685Y026483D01*
X001636Y026472D01*
X001587Y026465D01*
X001537Y026462D01*
X001488Y026463D01*
X001438Y026468D01*
X001389Y026477D01*
X001341Y026490D01*
X001294Y026506D01*
X001249Y026526D01*
X001205Y026550D01*
X001164Y026577D01*
X001124Y026607D01*
X001087Y026641D01*
X001053Y026677D01*
X001022Y026716D01*
X000994Y026757D01*
X000970Y026800D01*
X000949Y026845D01*
X000931Y026892D01*
X000918Y026939D01*
X000908Y026988D01*
X000902Y027037D01*
X000900Y027087D01*
X028400Y027087D02*
X028402Y027137D01*
X028408Y027186D01*
X028418Y027235D01*
X028431Y027282D01*
X028449Y027329D01*
X028470Y027374D01*
X028494Y027417D01*
X028522Y027458D01*
X028553Y027497D01*
X028587Y027533D01*
X028624Y027567D01*
X028664Y027597D01*
X028705Y027624D01*
X028749Y027648D01*
X028794Y027668D01*
X028841Y027684D01*
X028889Y027697D01*
X028938Y027706D01*
X028988Y027711D01*
X029037Y027712D01*
X029087Y027709D01*
X029136Y027702D01*
X029185Y027691D01*
X029232Y027677D01*
X029278Y027658D01*
X029323Y027636D01*
X029366Y027611D01*
X029406Y027582D01*
X029444Y027550D01*
X029480Y027516D01*
X029513Y027478D01*
X029542Y027438D01*
X029568Y027396D01*
X029591Y027352D01*
X029610Y027306D01*
X029626Y027259D01*
X029638Y027210D01*
X029646Y027161D01*
X029650Y027112D01*
X029650Y027062D01*
X029646Y027013D01*
X029638Y026964D01*
X029626Y026915D01*
X029610Y026868D01*
X029591Y026822D01*
X029568Y026778D01*
X029542Y026736D01*
X029513Y026696D01*
X029480Y026658D01*
X029444Y026624D01*
X029406Y026592D01*
X029366Y026563D01*
X029323Y026538D01*
X029278Y026516D01*
X029232Y026497D01*
X029185Y026483D01*
X029136Y026472D01*
X029087Y026465D01*
X029037Y026462D01*
X028988Y026463D01*
X028938Y026468D01*
X028889Y026477D01*
X028841Y026490D01*
X028794Y026506D01*
X028749Y026526D01*
X028705Y026550D01*
X028664Y026577D01*
X028624Y026607D01*
X028587Y026641D01*
X028553Y026677D01*
X028522Y026716D01*
X028494Y026757D01*
X028470Y026800D01*
X028449Y026845D01*
X028431Y026892D01*
X028418Y026939D01*
X028408Y026988D01*
X028402Y027037D01*
X028400Y027087D01*
X000900Y002087D02*
X000902Y002137D01*
X000908Y002186D01*
X000918Y002235D01*
X000931Y002282D01*
X000949Y002329D01*
X000970Y002374D01*
X000994Y002417D01*
X001022Y002458D01*
X001053Y002497D01*
X001087Y002533D01*
X001124Y002567D01*
X001164Y002597D01*
X001205Y002624D01*
X001249Y002648D01*
X001294Y002668D01*
X001341Y002684D01*
X001389Y002697D01*
X001438Y002706D01*
X001488Y002711D01*
X001537Y002712D01*
X001587Y002709D01*
X001636Y002702D01*
X001685Y002691D01*
X001732Y002677D01*
X001778Y002658D01*
X001823Y002636D01*
X001866Y002611D01*
X001906Y002582D01*
X001944Y002550D01*
X001980Y002516D01*
X002013Y002478D01*
X002042Y002438D01*
X002068Y002396D01*
X002091Y002352D01*
X002110Y002306D01*
X002126Y002259D01*
X002138Y002210D01*
X002146Y002161D01*
X002150Y002112D01*
X002150Y002062D01*
X002146Y002013D01*
X002138Y001964D01*
X002126Y001915D01*
X002110Y001868D01*
X002091Y001822D01*
X002068Y001778D01*
X002042Y001736D01*
X002013Y001696D01*
X001980Y001658D01*
X001944Y001624D01*
X001906Y001592D01*
X001866Y001563D01*
X001823Y001538D01*
X001778Y001516D01*
X001732Y001497D01*
X001685Y001483D01*
X001636Y001472D01*
X001587Y001465D01*
X001537Y001462D01*
X001488Y001463D01*
X001438Y001468D01*
X001389Y001477D01*
X001341Y001490D01*
X001294Y001506D01*
X001249Y001526D01*
X001205Y001550D01*
X001164Y001577D01*
X001124Y001607D01*
X001087Y001641D01*
X001053Y001677D01*
X001022Y001716D01*
X000994Y001757D01*
X000970Y001800D01*
X000949Y001845D01*
X000931Y001892D01*
X000918Y001939D01*
X000908Y001988D01*
X000902Y002037D01*
X000900Y002087D01*
D12*
X002775Y009900D02*
X022775Y009900D01*
X022775Y013650D01*
X023150Y013650D01*
X023150Y015650D01*
X022775Y015650D01*
X022775Y019400D01*
X002775Y019400D01*
X002775Y009900D01*
X012681Y008994D02*
X012681Y008306D01*
X014119Y008306D01*
X014119Y008994D01*
X012681Y008994D01*
X015556Y007619D02*
X015556Y006931D01*
X016994Y006931D01*
X016994Y007619D01*
X015556Y007619D01*
X016361Y003908D02*
X016361Y001892D01*
X018439Y001892D01*
X018439Y003908D01*
X016361Y003908D01*
X025962Y005372D02*
X027399Y005372D01*
X027399Y006060D01*
X025962Y006060D01*
X025962Y005372D01*
X031085Y006007D02*
X032522Y006007D01*
X032522Y006695D01*
X031085Y006695D01*
X031085Y006007D01*
X031085Y006972D02*
X032522Y006972D01*
X032522Y007659D01*
X031085Y007659D01*
X031085Y006972D01*
X031085Y007995D02*
X032522Y007995D01*
X032522Y008683D01*
X031085Y008683D01*
X031085Y007995D01*
X031282Y010830D02*
X029845Y010830D01*
X029845Y011517D01*
X031282Y011517D01*
X031282Y010830D01*
X038056Y009494D02*
X038056Y008806D01*
X039494Y008806D01*
X039494Y009494D01*
X038056Y009494D01*
X038704Y008113D02*
X038704Y007562D01*
X039846Y007562D01*
X039846Y008113D01*
X038704Y008113D01*
X038704Y007426D02*
X038704Y006874D01*
X039846Y006874D01*
X039846Y007426D01*
X038704Y007426D01*
X040181Y007431D02*
X040181Y008119D01*
X041619Y008119D01*
X041619Y007431D01*
X040181Y007431D01*
X035994Y015931D02*
X034556Y015931D01*
X034556Y016619D01*
X035994Y016619D01*
X035994Y015931D01*
X031619Y018431D02*
X031619Y019119D01*
X030181Y019119D01*
X030181Y018431D01*
X031619Y018431D01*
X026350Y020800D02*
X026350Y022500D01*
X025550Y022850D02*
X025450Y022850D01*
X025450Y022950D01*
X024850Y022950D01*
X024850Y022850D01*
X024750Y022850D01*
X023950Y022500D02*
X023950Y020800D01*
X024750Y020450D02*
X024850Y020450D01*
X024850Y020350D01*
X025450Y020350D01*
X025450Y020450D01*
X025550Y020450D01*
D13*
X022525Y022525D03*
X020650Y022525D03*
X034650Y004900D03*
X018150Y002712D03*
D14*
X016140Y002647D02*
X015975Y002647D01*
X016030Y002757D01*
X016030Y002812D01*
X015975Y002867D01*
X015865Y002867D01*
X015810Y002812D01*
X015810Y002702D01*
X015865Y002647D01*
X015810Y002499D02*
X016140Y002499D01*
X016140Y002647D02*
X016140Y002867D01*
X016085Y003015D02*
X016140Y003070D01*
X016140Y003180D01*
X016085Y003235D01*
X015865Y003015D01*
X015810Y003070D01*
X015810Y003180D01*
X015865Y003235D01*
X016085Y003235D01*
X016085Y003015D02*
X015865Y003015D01*
X015810Y002499D02*
X016140Y002278D01*
X015810Y002278D01*
X015810Y002130D02*
X015920Y002020D01*
X015920Y002075D02*
X015920Y001910D01*
X015810Y001910D02*
X016140Y001910D01*
X016140Y002075D01*
X016085Y002130D01*
X015975Y002130D01*
X015920Y002075D01*
X015908Y007810D02*
X016128Y007810D01*
X015908Y008030D01*
X015908Y008085D01*
X015963Y008140D01*
X016073Y008140D01*
X016128Y008085D01*
X016276Y008140D02*
X016497Y008140D01*
X016497Y007975D01*
X016387Y008030D01*
X016332Y008030D01*
X016276Y007975D01*
X016276Y007865D01*
X016332Y007810D01*
X016442Y007810D01*
X016497Y007865D01*
X016645Y007865D02*
X016700Y007810D01*
X016810Y007810D01*
X016865Y007865D01*
X016865Y008085D01*
X016810Y008140D01*
X016700Y008140D01*
X016645Y008085D01*
X013240Y009185D02*
X013240Y009515D01*
X013075Y009515D01*
X013020Y009460D01*
X013020Y009350D01*
X013075Y009295D01*
X013240Y009295D01*
X013130Y009295D02*
X013020Y009185D01*
X012872Y009240D02*
X012817Y009185D01*
X012707Y009185D01*
X012651Y009240D01*
X012651Y009350D01*
X012707Y009405D01*
X012762Y009405D01*
X012872Y009350D01*
X012872Y009515D01*
X012651Y009515D01*
X012503Y009405D02*
X012393Y009515D01*
X012393Y009185D01*
X012503Y009185D02*
X012283Y009185D01*
X023185Y010185D02*
X023515Y010405D01*
X023515Y010553D02*
X023350Y010553D01*
X023405Y010663D01*
X023405Y010718D01*
X023350Y010774D01*
X023240Y010774D01*
X023185Y010718D01*
X023185Y010608D01*
X023240Y010553D01*
X023185Y010405D02*
X023515Y010185D01*
X023515Y010553D02*
X023515Y010774D01*
X023460Y010922D02*
X023515Y010977D01*
X023515Y011087D01*
X023460Y011142D01*
X023240Y010922D01*
X023185Y010977D01*
X023185Y011087D01*
X023240Y011142D01*
X023460Y011142D01*
X023460Y010922D02*
X023240Y010922D01*
X030245Y011841D02*
X030300Y011786D01*
X030410Y011786D01*
X030465Y011841D01*
X030465Y011952D02*
X030355Y012007D01*
X030300Y012007D01*
X030245Y011952D01*
X030245Y011841D01*
X030465Y011952D02*
X030465Y012117D01*
X030245Y012117D01*
X030613Y012117D02*
X030833Y012117D01*
X030833Y011952D01*
X030723Y012007D01*
X030668Y012007D01*
X030613Y011952D01*
X030613Y011841D01*
X030668Y011786D01*
X030778Y011786D01*
X030833Y011841D01*
X030981Y011841D02*
X031036Y011786D01*
X031147Y011786D01*
X031202Y011841D01*
X031202Y012062D01*
X031147Y012117D01*
X031036Y012117D01*
X030981Y012062D01*
X031588Y009215D02*
X031753Y009050D01*
X031533Y009050D01*
X031588Y008885D02*
X031588Y009215D01*
X031901Y009215D02*
X032122Y009215D01*
X032122Y009050D01*
X032012Y009105D01*
X031957Y009105D01*
X031901Y009050D01*
X031901Y008940D01*
X031957Y008885D01*
X032067Y008885D01*
X032122Y008940D01*
X032270Y008940D02*
X032325Y008885D01*
X032435Y008885D01*
X032490Y008940D01*
X032490Y009160D01*
X032435Y009215D01*
X032325Y009215D01*
X032270Y009160D01*
X032753Y007804D02*
X032698Y007749D01*
X032698Y007639D01*
X032753Y007584D01*
X032753Y007436D02*
X032698Y007381D01*
X032698Y007271D01*
X032753Y007216D01*
X032863Y007216D02*
X032918Y007326D01*
X032918Y007381D01*
X032863Y007436D01*
X032753Y007436D01*
X032863Y007216D02*
X033028Y007216D01*
X033028Y007436D01*
X032973Y007584D02*
X033028Y007639D01*
X033028Y007749D01*
X032973Y007804D01*
X032918Y007804D01*
X032863Y007749D01*
X032808Y007804D01*
X032753Y007804D01*
X032863Y007749D02*
X032863Y007694D01*
X032973Y007068D02*
X033028Y007013D01*
X033028Y006903D01*
X032973Y006848D01*
X032753Y006848D01*
X032698Y006903D01*
X032698Y007013D01*
X032753Y007068D01*
X033560Y006079D02*
X033670Y005969D01*
X033670Y006024D02*
X033670Y005859D01*
X033560Y005859D02*
X033890Y005859D01*
X033890Y006024D01*
X033835Y006079D01*
X033725Y006079D01*
X033670Y006024D01*
X033560Y005711D02*
X033890Y005711D01*
X034060Y005656D02*
X034060Y005546D01*
X034115Y005491D01*
X034225Y005491D02*
X034280Y005601D01*
X034280Y005656D01*
X034225Y005711D01*
X034115Y005711D01*
X034060Y005656D01*
X034115Y005859D02*
X034335Y006079D01*
X034115Y006079D01*
X034060Y006024D01*
X034060Y005914D01*
X034115Y005859D01*
X034335Y005859D01*
X034390Y005914D01*
X034390Y006024D01*
X034335Y006079D01*
X034390Y005711D02*
X034390Y005491D01*
X034225Y005491D01*
X034115Y005343D02*
X034335Y005343D01*
X034390Y005288D01*
X034390Y005123D01*
X034060Y005123D01*
X034060Y005288D01*
X034115Y005343D01*
X033890Y005288D02*
X033835Y005343D01*
X033725Y005343D01*
X033670Y005288D01*
X033670Y005123D01*
X033560Y005123D02*
X033890Y005123D01*
X033890Y005288D01*
X033890Y005491D02*
X033560Y005491D01*
X033670Y005601D01*
X033560Y005711D01*
X032740Y005710D02*
X032740Y005490D01*
X032685Y005435D01*
X032575Y005435D01*
X032520Y005490D01*
X032372Y005490D02*
X032317Y005435D01*
X032207Y005435D01*
X032151Y005490D01*
X032151Y005600D01*
X032207Y005655D01*
X032262Y005655D01*
X032372Y005600D01*
X032372Y005765D01*
X032151Y005765D01*
X032003Y005655D02*
X031893Y005765D01*
X031893Y005435D01*
X032003Y005435D02*
X031783Y005435D01*
X032520Y005710D02*
X032575Y005765D01*
X032685Y005765D01*
X032740Y005710D01*
X037046Y006935D02*
X037266Y006935D01*
X037156Y006935D02*
X037156Y007265D01*
X037266Y007155D01*
X037414Y007100D02*
X037414Y006990D01*
X037469Y006935D01*
X037579Y006935D01*
X037634Y006990D01*
X037634Y007100D02*
X037524Y007155D01*
X037469Y007155D01*
X037414Y007100D01*
X037414Y007265D02*
X037634Y007265D01*
X037634Y007100D01*
X037782Y006990D02*
X037782Y007210D01*
X037837Y007265D01*
X038003Y007265D01*
X038003Y006935D01*
X037837Y006935D01*
X037782Y006990D01*
X037837Y007623D02*
X037782Y007678D01*
X037782Y007898D01*
X037837Y007953D01*
X038002Y007953D01*
X038002Y007623D01*
X037837Y007623D01*
X037634Y007678D02*
X037579Y007623D01*
X037469Y007623D01*
X037414Y007678D01*
X037414Y007788D01*
X037469Y007843D01*
X037524Y007843D01*
X037634Y007788D01*
X037634Y007953D01*
X037414Y007953D01*
X037266Y007898D02*
X037211Y007953D01*
X037101Y007953D01*
X037046Y007898D01*
X037046Y007843D01*
X037266Y007623D01*
X037046Y007623D01*
X038338Y009685D02*
X038283Y009740D01*
X038283Y009960D01*
X038503Y009740D01*
X038448Y009685D01*
X038338Y009685D01*
X038503Y009740D02*
X038503Y009960D01*
X038448Y010015D01*
X038338Y010015D01*
X038283Y009960D01*
X038651Y010015D02*
X038872Y010015D01*
X038872Y009850D01*
X038762Y009905D01*
X038707Y009905D01*
X038651Y009850D01*
X038651Y009740D01*
X038707Y009685D01*
X038817Y009685D01*
X038872Y009740D01*
X039020Y009685D02*
X039240Y009685D01*
X039240Y010015D01*
X040526Y008640D02*
X040471Y008585D01*
X040691Y008365D01*
X040636Y008310D01*
X040526Y008310D01*
X040471Y008365D01*
X040471Y008585D01*
X040526Y008640D02*
X040636Y008640D01*
X040691Y008585D01*
X040691Y008365D01*
X040839Y008365D02*
X040894Y008310D01*
X041004Y008310D01*
X041059Y008365D01*
X041059Y008475D02*
X040949Y008530D01*
X040894Y008530D01*
X040839Y008475D01*
X040839Y008365D01*
X041059Y008475D02*
X041059Y008640D01*
X040839Y008640D01*
X041207Y008585D02*
X041207Y008475D01*
X041262Y008420D01*
X041427Y008420D01*
X041317Y008420D02*
X041207Y008310D01*
X041427Y008310D02*
X041427Y008640D01*
X041262Y008640D01*
X041207Y008585D01*
X035810Y015435D02*
X035700Y015435D01*
X035645Y015490D01*
X035497Y015490D02*
X035442Y015435D01*
X035332Y015435D01*
X035276Y015490D01*
X035276Y015600D01*
X035332Y015655D01*
X035387Y015655D01*
X035497Y015600D01*
X035497Y015765D01*
X035276Y015765D01*
X035128Y015600D02*
X035128Y015490D01*
X035073Y015435D01*
X034963Y015435D01*
X034908Y015490D01*
X034908Y015545D01*
X034963Y015600D01*
X035128Y015600D01*
X035018Y015710D01*
X034908Y015765D01*
X035645Y015710D02*
X035700Y015765D01*
X035810Y015765D01*
X035865Y015710D01*
X035865Y015490D01*
X035810Y015435D01*
X031490Y019365D02*
X031435Y019310D01*
X031325Y019310D01*
X031270Y019365D01*
X031122Y019365D02*
X031067Y019310D01*
X030957Y019310D01*
X030901Y019365D01*
X030901Y019475D01*
X030957Y019530D01*
X031012Y019530D01*
X031122Y019475D01*
X031122Y019640D01*
X030901Y019640D01*
X030753Y019640D02*
X030533Y019640D01*
X030533Y019585D01*
X030753Y019365D01*
X030753Y019310D01*
X031270Y019585D02*
X031325Y019640D01*
X031435Y019640D01*
X031490Y019585D01*
X031490Y019365D01*
X027515Y020685D02*
X027515Y020850D01*
X027460Y020905D01*
X027350Y020905D01*
X027295Y020850D01*
X027295Y020685D01*
X027185Y020685D02*
X027515Y020685D01*
X027460Y021053D02*
X027240Y021053D01*
X027185Y021108D01*
X027185Y021218D01*
X027240Y021274D01*
X027350Y021274D01*
X027350Y021163D01*
X027460Y021053D02*
X027515Y021108D01*
X027515Y021218D01*
X027460Y021274D01*
X027515Y021422D02*
X027405Y021532D01*
X027515Y021642D01*
X027185Y021642D01*
X027015Y021587D02*
X026960Y021642D01*
X026740Y021422D01*
X026685Y021477D01*
X026685Y021587D01*
X026740Y021642D01*
X026960Y021642D01*
X027015Y021587D02*
X027015Y021477D01*
X026960Y021422D01*
X026740Y021422D01*
X026740Y021274D02*
X026685Y021218D01*
X026685Y021108D01*
X026740Y021053D01*
X026850Y021053D02*
X026905Y021163D01*
X026905Y021218D01*
X026850Y021274D01*
X026740Y021274D01*
X026850Y021053D02*
X027015Y021053D01*
X027015Y021274D01*
X027185Y021422D02*
X027515Y021422D01*
X026960Y020905D02*
X027015Y020850D01*
X027015Y020740D01*
X026960Y020685D01*
X026905Y020685D01*
X026850Y020740D01*
X026850Y020850D01*
X026795Y020905D01*
X026740Y020905D01*
X026685Y020850D01*
X026685Y020740D01*
X026740Y020685D01*
X022265Y022748D02*
X022265Y022913D01*
X022210Y022968D01*
X021990Y022968D01*
X021935Y022913D01*
X021935Y022748D01*
X022265Y022748D01*
X022265Y023116D02*
X022100Y023116D01*
X022155Y023226D01*
X022155Y023281D01*
X022100Y023336D01*
X021990Y023336D01*
X021935Y023281D01*
X021935Y023171D01*
X021990Y023116D01*
X021765Y023116D02*
X021765Y023336D01*
X021765Y023226D02*
X021435Y023226D01*
X021435Y023484D02*
X021655Y023484D01*
X021765Y023594D01*
X021655Y023704D01*
X021435Y023704D01*
X021600Y023704D02*
X021600Y023484D01*
X021935Y023539D02*
X021990Y023484D01*
X021935Y023539D02*
X021935Y023649D01*
X021990Y023704D01*
X022045Y023704D01*
X022100Y023649D01*
X022100Y023594D01*
X022100Y023649D02*
X022155Y023704D01*
X022210Y023704D01*
X022265Y023649D01*
X022265Y023539D01*
X022210Y023484D01*
X022265Y023336D02*
X022265Y023116D01*
X021765Y022913D02*
X021765Y022803D01*
X021710Y022748D01*
X021655Y022748D01*
X021600Y022803D01*
X021600Y022913D01*
X021545Y022968D01*
X021490Y022968D01*
X021435Y022913D01*
X021435Y022803D01*
X021490Y022748D01*
X021710Y022968D02*
X021765Y022913D01*
X021765Y023852D02*
X021765Y024073D01*
X021765Y023963D02*
X021435Y023963D01*
X020390Y023649D02*
X020225Y023484D01*
X020225Y023704D01*
X020060Y023649D02*
X020390Y023649D01*
X020390Y023336D02*
X020390Y023116D01*
X020225Y023116D01*
X020280Y023226D01*
X020280Y023281D01*
X020225Y023336D01*
X020115Y023336D01*
X020060Y023281D01*
X020060Y023171D01*
X020115Y023116D01*
X020115Y022968D02*
X020335Y022968D01*
X020390Y022913D01*
X020390Y022748D01*
X020060Y022748D01*
X020060Y022913D01*
X020115Y022968D01*
X019890Y022913D02*
X019835Y022968D01*
X019725Y022968D01*
X019670Y022913D01*
X019670Y022748D01*
X019560Y022748D02*
X019890Y022748D01*
X019890Y022913D01*
X019835Y023116D02*
X019615Y023116D01*
X019560Y023171D01*
X019560Y023281D01*
X019615Y023336D01*
X019725Y023336D01*
X019725Y023226D01*
X019835Y023336D02*
X019890Y023281D01*
X019890Y023171D01*
X019835Y023116D01*
X019890Y023484D02*
X019560Y023484D01*
X019560Y023704D02*
X019890Y023704D01*
X019780Y023594D01*
X019890Y023484D01*
X025794Y005076D02*
X025739Y005021D01*
X025959Y004801D01*
X025904Y004746D01*
X025794Y004746D01*
X025739Y004801D01*
X025739Y005021D01*
X025794Y005076D02*
X025904Y005076D01*
X025959Y005021D01*
X025959Y004801D01*
X026107Y004801D02*
X026162Y004746D01*
X026272Y004746D01*
X026327Y004801D01*
X026327Y004911D02*
X026217Y004966D01*
X026162Y004966D01*
X026107Y004911D01*
X026107Y004801D01*
X026327Y004911D02*
X026327Y005076D01*
X026107Y005076D01*
X026476Y005021D02*
X026531Y005076D01*
X026641Y005076D01*
X026696Y005021D01*
X026696Y004801D01*
X026641Y004746D01*
X026531Y004746D01*
X026476Y004801D01*
M02*
