G75*
G70*
%OFA0B0*%
%FSLAX24Y24*%
%IPPOS*%
%LPD*%
%AMOC8*
5,1,8,0,0,1.08239X$1,22.5*
%
%ADD10C,0.0100*%
%ADD11C,0.0080*%
%ADD12C,0.0070*%
%ADD13C,0.0090*%
%ADD14C,0.0130*%
%ADD15C,0.0000*%
%ADD16C,0.0401*%
%ADD17C,0.0250*%
%ADD18R,0.0276X0.1732*%
%ADD19R,0.1250X0.0188*%
%ADD20C,0.0010*%
%ADD21R,0.2559X0.0295*%
%ADD22C,0.1000*%
%ADD23R,0.4500X0.1000*%
%ADD24C,0.0160*%
%ADD25C,0.0400*%
%ADD26C,0.0300*%
D10*
X000150Y000150D02*
X000150Y029025D01*
X036525Y029025D01*
X036525Y025525D01*
X042150Y025525D01*
X042150Y003650D01*
X036525Y003650D01*
X036525Y000150D01*
X000150Y000150D01*
X015525Y003400D02*
X015650Y003650D01*
X015775Y003400D01*
X015927Y012400D02*
X016365Y012400D01*
X016759Y012400D02*
X017197Y012400D01*
X017591Y012400D02*
X018029Y012400D01*
X018423Y012400D02*
X018861Y012400D01*
X019255Y012400D02*
X019693Y012400D01*
X020087Y012400D02*
X020525Y012400D01*
X020525Y012822D01*
X020525Y013216D02*
X020525Y013638D01*
X020150Y013650D02*
X019708Y013650D01*
X019315Y013650D02*
X018873Y013650D01*
X018479Y013650D02*
X018037Y013650D01*
X017644Y013650D02*
X017202Y013650D01*
X016808Y013650D02*
X016367Y013650D01*
X015973Y013650D02*
X015531Y013650D01*
X015138Y013650D02*
X014696Y013650D01*
X014302Y013650D02*
X013860Y013650D01*
X013467Y013650D02*
X013025Y013650D01*
X013025Y014054D01*
X013025Y014448D02*
X013025Y014852D01*
X013025Y015246D02*
X013025Y015650D01*
X013467Y015650D01*
X013860Y015650D02*
X014302Y015650D01*
X014696Y015650D02*
X015138Y015650D01*
X015531Y015650D02*
X015973Y015650D01*
X016367Y015650D02*
X016808Y015650D01*
X017202Y015650D02*
X017644Y015650D01*
X018037Y015650D02*
X018479Y015650D01*
X018873Y015650D02*
X019315Y015650D01*
X019708Y015650D02*
X020150Y015650D01*
X020150Y015246D01*
X020525Y015269D02*
X020525Y014847D01*
X020150Y014852D02*
X020150Y014448D01*
X020525Y014453D02*
X020525Y014031D01*
X020150Y014054D02*
X020150Y013650D01*
X017819Y014450D02*
X017513Y014450D01*
X017819Y014757D01*
X017819Y014834D01*
X017743Y014910D01*
X017589Y014910D01*
X017513Y014834D01*
X017150Y014910D02*
X017150Y014450D01*
X016997Y014450D02*
X017304Y014450D01*
X016997Y014757D02*
X017150Y014910D01*
X016788Y014834D02*
X016711Y014910D01*
X016558Y014910D01*
X016481Y014834D01*
X016273Y014834D02*
X016196Y014910D01*
X016042Y014910D01*
X015966Y014834D01*
X015757Y014910D02*
X015450Y014450D01*
X015757Y014450D02*
X015450Y014910D01*
X015966Y014450D02*
X016273Y014757D01*
X016273Y014834D01*
X016273Y014450D02*
X015966Y014450D01*
X016481Y014450D02*
X016788Y014757D01*
X016788Y014834D01*
X016788Y014450D02*
X016481Y014450D01*
X015533Y012400D02*
X015095Y012400D01*
X014701Y012400D02*
X014263Y012400D01*
X013869Y012400D02*
X013431Y012400D01*
X013037Y012400D02*
X012599Y012400D01*
X012205Y012400D02*
X011767Y012400D01*
X011373Y012400D02*
X010935Y012400D01*
X010541Y012400D02*
X010103Y012400D01*
X009709Y012400D02*
X009271Y012400D01*
X008877Y012400D02*
X008439Y012400D01*
X008045Y012400D02*
X007607Y012400D01*
X007213Y012400D02*
X006775Y012400D01*
X006775Y012822D01*
X006775Y013216D02*
X006775Y013638D01*
X007150Y013650D02*
X007150Y014054D01*
X006775Y014031D02*
X006775Y014453D01*
X007150Y014448D02*
X007150Y014852D01*
X007513Y014910D02*
X007819Y014450D01*
X008028Y014450D02*
X008335Y014757D01*
X008335Y014834D01*
X008258Y014910D01*
X008105Y014910D01*
X008028Y014834D01*
X007819Y014910D02*
X007513Y014450D01*
X008028Y014450D02*
X008335Y014450D01*
X008544Y014680D02*
X008851Y014680D01*
X009059Y014680D02*
X009366Y014680D01*
X009575Y014680D02*
X009882Y014680D01*
X009805Y014450D02*
X009805Y014910D01*
X009575Y014680D01*
X009290Y014450D02*
X009290Y014910D01*
X009059Y014680D01*
X008774Y014450D02*
X008774Y014910D01*
X008544Y014680D01*
X008453Y015650D02*
X007998Y015650D01*
X007605Y015650D02*
X007150Y015650D01*
X007150Y015246D01*
X006775Y015269D02*
X006775Y014847D01*
X006775Y015662D02*
X006775Y016084D01*
X006775Y016478D02*
X006775Y016900D01*
X007213Y016900D01*
X007607Y016900D02*
X008045Y016900D01*
X008439Y016900D02*
X008877Y016900D01*
X009271Y016900D02*
X009709Y016900D01*
X010103Y016900D02*
X010541Y016900D01*
X010935Y016900D02*
X011373Y016900D01*
X011767Y016900D02*
X012205Y016900D01*
X012599Y016900D02*
X013037Y016900D01*
X013431Y016900D02*
X013869Y016900D01*
X014263Y016900D02*
X014701Y016900D01*
X015095Y016900D02*
X015533Y016900D01*
X015927Y016900D02*
X016365Y016900D01*
X016759Y016900D02*
X017197Y016900D01*
X017591Y016900D02*
X018029Y016900D01*
X018423Y016900D02*
X018861Y016900D01*
X019255Y016900D02*
X019693Y016900D01*
X020087Y016900D02*
X020525Y016900D01*
X020525Y016478D01*
X020525Y016084D02*
X020525Y015662D01*
X010150Y015650D02*
X010150Y015246D01*
X010150Y014852D02*
X010150Y014448D01*
X010150Y014054D02*
X010150Y013650D01*
X009695Y013650D01*
X009302Y013650D02*
X008847Y013650D01*
X008453Y013650D02*
X007998Y013650D01*
X007605Y013650D02*
X007150Y013650D01*
X008847Y015650D02*
X009302Y015650D01*
X009695Y015650D02*
X010150Y015650D01*
X032400Y016775D02*
X032400Y018775D01*
X034400Y018775D01*
X034400Y017775D01*
X035400Y017775D01*
X035400Y018775D01*
X034400Y018775D01*
X034900Y019025D02*
X035025Y019275D01*
X034775Y019275D02*
X034900Y019025D01*
X035400Y017775D02*
X035400Y016775D01*
X032400Y016775D01*
X032900Y012900D02*
X032900Y011900D01*
X033900Y011900D01*
X033900Y010900D01*
X034900Y010900D01*
X034900Y012900D01*
X032900Y012900D01*
X032900Y011900D02*
X032900Y010900D01*
X033900Y010900D01*
X036650Y011400D02*
X042150Y011400D01*
X042150Y023900D01*
X036650Y023900D01*
X036650Y011400D01*
D11*
X035189Y013892D02*
X033111Y013892D01*
X033111Y015908D01*
X035189Y015908D01*
X035189Y013892D01*
X031400Y014300D02*
X031400Y014661D01*
X031400Y014300D02*
X031398Y014283D01*
X031394Y014266D01*
X031387Y014250D01*
X031377Y014236D01*
X031364Y014223D01*
X031350Y014213D01*
X031334Y014206D01*
X031317Y014202D01*
X031300Y014200D01*
X027000Y014200D01*
X026983Y014202D01*
X026966Y014206D01*
X026950Y014213D01*
X026936Y014223D01*
X026923Y014236D01*
X026913Y014250D01*
X026906Y014266D01*
X026902Y014283D01*
X026900Y014300D01*
X026900Y014661D01*
X026900Y015639D02*
X026900Y016000D01*
X026902Y016017D01*
X026906Y016034D01*
X026913Y016050D01*
X026923Y016064D01*
X026936Y016077D01*
X026950Y016087D01*
X026966Y016094D01*
X026983Y016098D01*
X027000Y016100D01*
X031300Y016100D01*
X031317Y016098D01*
X031334Y016094D01*
X031350Y016087D01*
X031364Y016077D01*
X031377Y016064D01*
X031387Y016050D01*
X031394Y016034D01*
X031398Y016017D01*
X031400Y016000D01*
X031400Y015639D01*
X031369Y016431D02*
X029931Y016431D01*
X029931Y017119D01*
X031369Y017119D01*
X031369Y016431D01*
X029675Y015150D02*
X029400Y015150D01*
X029400Y014900D01*
X029250Y014900D02*
X029250Y015400D01*
X029050Y015400D01*
X029050Y014900D01*
X029250Y014900D01*
X029400Y015150D02*
X029400Y015400D01*
X028900Y015400D02*
X028900Y015150D01*
X028625Y015150D01*
X028900Y015150D02*
X028900Y014900D01*
X028369Y016431D02*
X026931Y016431D01*
X026931Y017119D01*
X028369Y017119D01*
X028369Y016431D01*
X027600Y019400D02*
X027600Y021900D01*
X031700Y021900D01*
X031700Y019400D01*
X027600Y019400D01*
X026369Y020931D02*
X026369Y021619D01*
X024931Y021619D01*
X024931Y020931D01*
X026369Y020931D01*
X026369Y021681D02*
X026369Y022369D01*
X024931Y022369D01*
X024931Y021681D01*
X026369Y021681D01*
X028056Y023681D02*
X028056Y025119D01*
X028744Y025119D01*
X028744Y023681D01*
X028056Y023681D01*
X029056Y023681D02*
X029056Y025119D01*
X029744Y025119D01*
X029744Y023681D01*
X029056Y023681D01*
X030056Y023681D02*
X030056Y025119D01*
X030744Y025119D01*
X030744Y023681D01*
X030056Y023681D01*
X031056Y023681D02*
X031056Y025119D01*
X031744Y025119D01*
X031744Y023681D01*
X031056Y023681D01*
X032056Y023681D02*
X032744Y023681D01*
X032744Y025119D01*
X032056Y025119D01*
X032056Y023681D01*
X033111Y021658D02*
X035189Y021658D01*
X035189Y019642D01*
X033111Y019642D01*
X033111Y021658D01*
X027150Y025025D02*
X025900Y025025D01*
X024650Y025025D02*
X023400Y025025D01*
X023400Y025525D01*
X023400Y026775D02*
X023400Y029025D01*
X021305Y028343D02*
X021305Y028048D01*
X021305Y024957D01*
X018745Y024957D01*
X018745Y028048D01*
X021305Y028048D01*
X021305Y028343D02*
X018745Y028343D01*
X018745Y028048D01*
X019150Y027650D02*
X019550Y027650D01*
X019350Y027850D02*
X019350Y027450D01*
X019350Y025850D02*
X019350Y025450D01*
X019806Y024369D02*
X020494Y024369D01*
X020494Y022931D01*
X019806Y022931D01*
X019806Y024369D01*
X016061Y023610D02*
X016061Y026190D01*
X014739Y026190D01*
X014739Y023610D01*
X016061Y023610D01*
X014494Y023494D02*
X013806Y023494D01*
X013806Y022056D01*
X014494Y022056D01*
X014494Y023494D01*
X013494Y023494D02*
X013494Y022056D01*
X012806Y022056D01*
X012806Y023494D01*
X013494Y023494D01*
X011710Y023335D02*
X011390Y023335D01*
X011390Y023076D01*
X011390Y022474D02*
X011390Y022215D01*
X011710Y022215D01*
X011994Y021869D02*
X011306Y021869D01*
X011306Y020431D01*
X011994Y020431D01*
X011994Y021869D01*
X012590Y021410D02*
X012849Y021410D01*
X012590Y021410D02*
X012590Y021090D01*
X013451Y021410D02*
X013710Y021410D01*
X013710Y021090D01*
X010639Y022061D02*
X010639Y023282D01*
X009411Y023282D01*
X009411Y022061D01*
X010639Y022061D01*
X010639Y023282D02*
X010639Y024542D01*
X009411Y024542D01*
X009411Y023282D01*
X007016Y023405D02*
X005284Y023405D01*
X005284Y023770D02*
X007016Y023770D01*
X006400Y024087D02*
X005900Y024400D01*
X006400Y024713D01*
X006400Y024087D01*
X006347Y024164D02*
X005953Y024400D01*
X006347Y024636D01*
X006347Y024164D01*
X006347Y024171D02*
X006335Y024171D01*
X006347Y024250D02*
X006204Y024250D01*
X006073Y024328D02*
X006347Y024328D01*
X006347Y024407D02*
X005964Y024407D01*
X006095Y024485D02*
X006347Y024485D01*
X006347Y024564D02*
X006226Y024564D01*
X005838Y024713D02*
X005838Y024087D01*
X005838Y023088D02*
X005838Y022462D01*
X005900Y022775D02*
X006400Y022462D01*
X006400Y023088D01*
X005900Y022775D01*
X005953Y022775D02*
X006347Y022539D01*
X006347Y023011D01*
X005953Y022775D01*
X005981Y022758D02*
X006347Y022758D01*
X006347Y022680D02*
X006112Y022680D01*
X006243Y022601D02*
X006347Y022601D01*
X006347Y022837D02*
X006056Y022837D01*
X006187Y022915D02*
X006347Y022915D01*
X006347Y022994D02*
X006317Y022994D01*
X007016Y022145D02*
X005284Y022145D01*
X006056Y021319D02*
X006744Y021319D01*
X006744Y019881D01*
X006056Y019881D01*
X006056Y021319D01*
X007590Y020660D02*
X007590Y020340D01*
X007849Y020340D01*
X008451Y020340D02*
X008710Y020340D01*
X008710Y020660D01*
X008494Y019619D02*
X007806Y019619D01*
X007806Y018181D01*
X008494Y018181D01*
X008494Y019619D01*
X009806Y019619D02*
X010494Y019619D01*
X010494Y018181D01*
X009806Y018181D01*
X009806Y019619D01*
X009883Y016510D02*
X009670Y016510D01*
X009670Y016190D01*
X009883Y016190D01*
X010038Y016190D02*
X010038Y016510D01*
X010198Y016510D01*
X010252Y016457D01*
X010252Y016350D01*
X010198Y016297D01*
X010038Y016297D01*
X010145Y016297D02*
X010252Y016190D01*
X009777Y016350D02*
X009670Y016350D01*
X009515Y016297D02*
X009515Y016510D01*
X009515Y016297D02*
X009408Y016190D01*
X009302Y016297D01*
X009302Y016510D01*
X009147Y016510D02*
X008933Y016510D01*
X008933Y016190D01*
X009147Y016190D01*
X009040Y016350D02*
X008933Y016350D01*
X008779Y016190D02*
X008565Y016190D01*
X008565Y016510D01*
X008275Y016337D02*
X007150Y016337D01*
X007650Y016150D01*
X007150Y016338D01*
X007650Y016525D01*
X007650Y016150D01*
X007650Y016525D01*
X007150Y016337D01*
X007194Y016321D02*
X007650Y016321D01*
X007650Y016243D02*
X007403Y016243D01*
X007315Y016400D02*
X007650Y016400D01*
X007650Y016478D02*
X007525Y016478D01*
X007613Y016164D02*
X007650Y016164D01*
X005244Y017806D02*
X003806Y017806D01*
X003806Y018494D01*
X005244Y018494D01*
X005244Y017806D01*
X005085Y019590D02*
X005085Y019910D01*
X004826Y019910D01*
X004224Y019910D02*
X003965Y019910D01*
X003965Y019590D01*
X001275Y024025D02*
X001650Y024900D01*
X001775Y024900D01*
X001650Y024900D02*
X001150Y024900D01*
X001525Y024681D01*
X001431Y024462D02*
X000994Y024712D01*
X000900Y024900D02*
X001275Y024025D01*
X001338Y024275D02*
X001150Y024369D01*
X001150Y024900D02*
X000900Y024900D01*
X000775Y024900D01*
X001275Y025400D02*
X001319Y025398D01*
X001362Y025392D01*
X001404Y025383D01*
X001446Y025370D01*
X001486Y025353D01*
X001525Y025333D01*
X001562Y025310D01*
X001596Y025283D01*
X001629Y025254D01*
X001658Y025221D01*
X001685Y025187D01*
X001708Y025150D01*
X001728Y025111D01*
X001745Y025071D01*
X001758Y025029D01*
X001767Y024987D01*
X001773Y024944D01*
X001775Y024900D01*
X001275Y025400D02*
X001231Y025398D01*
X001188Y025392D01*
X001146Y025383D01*
X001104Y025370D01*
X001064Y025353D01*
X001025Y025333D01*
X000988Y025310D01*
X000954Y025283D01*
X000921Y025254D01*
X000892Y025221D01*
X000865Y025187D01*
X000842Y025150D01*
X000822Y025111D01*
X000805Y025071D01*
X000792Y025029D01*
X000783Y024987D01*
X000777Y024944D01*
X000775Y024900D01*
X001275Y025150D02*
X001275Y025400D01*
X005284Y025030D02*
X007016Y025030D01*
X009510Y026659D02*
X009510Y028391D01*
X012030Y028391D01*
X012030Y026659D01*
X009510Y026659D01*
X011806Y026244D02*
X011806Y025556D01*
X013244Y025556D01*
X013244Y026244D01*
X011806Y026244D01*
X012030Y026659D02*
X013487Y026659D01*
X013487Y028391D01*
X012030Y028391D01*
X014092Y028319D02*
X015958Y028319D01*
X015958Y026981D02*
X014092Y026981D01*
X019806Y019619D02*
X020494Y019619D01*
X020494Y018181D01*
X019806Y018181D01*
X019806Y019619D01*
X021681Y019619D02*
X021681Y018181D01*
X022369Y018181D01*
X022369Y019619D01*
X021681Y019619D01*
X027150Y025025D02*
X027150Y029025D01*
X030650Y027650D02*
X030775Y027650D01*
X031150Y026775D01*
X031525Y027650D01*
X031650Y027650D01*
X031525Y027650D02*
X031025Y027650D01*
X031400Y027431D01*
X031306Y027212D02*
X030869Y027462D01*
X030775Y027650D02*
X031025Y027650D01*
X031150Y028150D02*
X031194Y028148D01*
X031237Y028142D01*
X031279Y028133D01*
X031321Y028120D01*
X031361Y028103D01*
X031400Y028083D01*
X031437Y028060D01*
X031471Y028033D01*
X031504Y028004D01*
X031533Y027971D01*
X031560Y027937D01*
X031583Y027900D01*
X031603Y027861D01*
X031620Y027821D01*
X031633Y027779D01*
X031642Y027737D01*
X031648Y027694D01*
X031650Y027650D01*
X031150Y028150D02*
X031106Y028148D01*
X031063Y028142D01*
X031021Y028133D01*
X030979Y028120D01*
X030939Y028103D01*
X030900Y028083D01*
X030863Y028060D01*
X030829Y028033D01*
X030796Y028004D01*
X030767Y027971D01*
X030740Y027937D01*
X030717Y027900D01*
X030697Y027861D01*
X030680Y027821D01*
X030667Y027779D01*
X030658Y027737D01*
X030652Y027694D01*
X030650Y027650D01*
X031150Y027900D02*
X031150Y028150D01*
X031025Y027119D02*
X031213Y027025D01*
X031227Y011542D02*
X025766Y011542D01*
X025766Y006081D01*
X031057Y006081D01*
X031227Y006251D01*
X031227Y011542D01*
X036556Y008181D02*
X037994Y008181D01*
X037994Y007494D01*
X036556Y007494D01*
X036556Y008181D01*
X036556Y007494D02*
X037994Y007494D01*
X037994Y006806D01*
X036556Y006806D01*
X036556Y007494D01*
X039006Y006764D02*
X039006Y006272D01*
X042648Y006272D01*
X042648Y009028D01*
X039006Y009028D01*
X039006Y008536D01*
X031150Y003025D02*
X031150Y002775D01*
X031150Y003025D02*
X031194Y003023D01*
X031237Y003017D01*
X031279Y003008D01*
X031321Y002995D01*
X031361Y002978D01*
X031400Y002958D01*
X031437Y002935D01*
X031471Y002908D01*
X031504Y002879D01*
X031533Y002846D01*
X031560Y002812D01*
X031583Y002775D01*
X031603Y002736D01*
X031620Y002696D01*
X031633Y002654D01*
X031642Y002612D01*
X031648Y002569D01*
X031650Y002525D01*
X031525Y002525D01*
X031150Y001650D01*
X030775Y002525D01*
X031025Y002525D01*
X031400Y002306D01*
X031306Y002087D02*
X030869Y002337D01*
X030775Y002525D02*
X030650Y002525D01*
X031025Y002525D02*
X031525Y002525D01*
X031150Y003025D02*
X031106Y003023D01*
X031063Y003017D01*
X031021Y003008D01*
X030979Y002995D01*
X030939Y002978D01*
X030900Y002958D01*
X030863Y002935D01*
X030829Y002908D01*
X030796Y002879D01*
X030767Y002846D01*
X030740Y002812D01*
X030717Y002775D01*
X030697Y002736D01*
X030680Y002696D01*
X030667Y002654D01*
X030658Y002612D01*
X030652Y002569D01*
X030650Y002525D01*
X031025Y001994D02*
X031213Y001900D01*
X033056Y002056D02*
X033056Y002744D01*
X034494Y002744D01*
X034494Y002056D01*
X033056Y002056D01*
X021650Y003850D02*
X013650Y003850D01*
X013650Y007450D01*
X014150Y007450D01*
X014150Y007350D01*
X017250Y007350D01*
X017250Y007450D01*
X018050Y007450D01*
X018050Y007350D01*
X021150Y007350D01*
X021150Y007450D01*
X021650Y007450D01*
X021650Y003850D01*
X011369Y004806D02*
X009931Y004806D01*
X009931Y005494D01*
X011369Y005494D01*
X011369Y004806D01*
X011369Y005681D02*
X009931Y005681D01*
X009931Y006369D01*
X011369Y006369D01*
X011369Y005681D01*
X011369Y006681D02*
X009931Y006681D01*
X009931Y007369D01*
X011369Y007369D01*
X011369Y006681D01*
X011369Y007556D02*
X009931Y007556D01*
X009931Y008244D01*
X011369Y008244D01*
X011369Y007556D01*
X008944Y007576D02*
X008944Y007517D01*
X008944Y007576D02*
X007606Y007576D01*
X007606Y007517D01*
X007606Y006533D02*
X007606Y006474D01*
X008944Y006474D01*
X008944Y006533D01*
X008944Y005701D02*
X007606Y005701D01*
X007606Y005642D01*
X007606Y004658D02*
X007606Y004599D01*
X008944Y004599D01*
X008944Y004658D01*
X008944Y005642D02*
X008944Y005701D01*
X004150Y002525D02*
X004025Y002525D01*
X003650Y001650D01*
X003275Y002525D01*
X003525Y002525D01*
X003900Y002306D01*
X003806Y002087D02*
X003369Y002337D01*
X003275Y002525D02*
X003150Y002525D01*
X003525Y002525D02*
X004025Y002525D01*
X003650Y003025D02*
X003606Y003023D01*
X003563Y003017D01*
X003521Y003008D01*
X003479Y002995D01*
X003439Y002978D01*
X003400Y002958D01*
X003363Y002935D01*
X003329Y002908D01*
X003296Y002879D01*
X003267Y002846D01*
X003240Y002812D01*
X003217Y002775D01*
X003197Y002736D01*
X003180Y002696D01*
X003167Y002654D01*
X003158Y002612D01*
X003152Y002569D01*
X003150Y002525D01*
X003650Y003025D02*
X003694Y003023D01*
X003737Y003017D01*
X003779Y003008D01*
X003821Y002995D01*
X003861Y002978D01*
X003900Y002958D01*
X003937Y002935D01*
X003971Y002908D01*
X004004Y002879D01*
X004033Y002846D01*
X004060Y002812D01*
X004083Y002775D01*
X004103Y002736D01*
X004120Y002696D01*
X004133Y002654D01*
X004142Y002612D01*
X004148Y002569D01*
X004150Y002525D01*
X003650Y002775D02*
X003650Y003025D01*
X003525Y001994D02*
X003713Y001900D01*
D12*
X007435Y004035D02*
X007435Y004365D01*
X007600Y004365D01*
X007655Y004310D01*
X007655Y004200D01*
X007600Y004145D01*
X007435Y004145D01*
X007545Y004145D02*
X007655Y004035D01*
X007803Y004035D02*
X007803Y004365D01*
X008024Y004365D01*
X008172Y004310D02*
X008172Y004255D01*
X008227Y004200D01*
X008337Y004200D01*
X008392Y004145D01*
X008392Y004090D01*
X008337Y004035D01*
X008227Y004035D01*
X008172Y004090D01*
X008024Y004035D02*
X007803Y004035D01*
X007803Y004200D02*
X007913Y004200D01*
X008172Y004310D02*
X008227Y004365D01*
X008337Y004365D01*
X008392Y004310D01*
X008540Y004365D02*
X008540Y004035D01*
X008760Y004035D01*
X008650Y004200D02*
X008540Y004200D01*
X008540Y004365D02*
X008760Y004365D01*
X008908Y004365D02*
X009128Y004365D01*
X009018Y004365D02*
X009018Y004035D01*
X006774Y004985D02*
X006553Y004985D01*
X006774Y005205D01*
X006774Y005260D01*
X006718Y005315D01*
X006608Y005315D01*
X006553Y005260D01*
X006405Y005260D02*
X006350Y005315D01*
X006240Y005315D01*
X006185Y005260D01*
X006185Y005205D01*
X006240Y005150D01*
X006350Y005150D01*
X006405Y005095D01*
X006405Y005040D01*
X006350Y004985D01*
X006240Y004985D01*
X006185Y005040D01*
X006240Y006885D02*
X006185Y006940D01*
X006240Y006885D02*
X006350Y006885D01*
X006405Y006940D01*
X006405Y006995D01*
X006350Y007050D01*
X006240Y007050D01*
X006185Y007105D01*
X006185Y007160D01*
X006240Y007215D01*
X006350Y007215D01*
X006405Y007160D01*
X006553Y007105D02*
X006663Y007215D01*
X006663Y006885D01*
X006553Y006885D02*
X006774Y006885D01*
X007685Y007835D02*
X007850Y007835D01*
X007905Y007890D01*
X007905Y007945D01*
X007850Y008000D01*
X007685Y008000D01*
X007685Y007835D02*
X007685Y008165D01*
X007850Y008165D01*
X007905Y008110D01*
X007905Y008055D01*
X007850Y008000D01*
X008053Y008110D02*
X008053Y007890D01*
X008108Y007835D01*
X008218Y007835D01*
X008274Y007890D01*
X008274Y008110D01*
X008218Y008165D01*
X008108Y008165D01*
X008053Y008110D01*
X008422Y008110D02*
X008422Y007890D01*
X008477Y007835D01*
X008587Y007835D01*
X008642Y007890D01*
X008642Y008110D01*
X008587Y008165D01*
X008477Y008165D01*
X008422Y008110D01*
X008790Y008165D02*
X009010Y008165D01*
X008900Y008165D02*
X008900Y007835D01*
X011685Y007740D02*
X011740Y007685D01*
X011850Y007685D01*
X011905Y007740D01*
X012053Y007685D02*
X012274Y007685D01*
X012163Y007685D02*
X012163Y008015D01*
X012053Y007905D01*
X011905Y007960D02*
X011850Y008015D01*
X011740Y008015D01*
X011685Y007960D01*
X011685Y007740D01*
X011685Y007140D02*
X011850Y007140D01*
X011905Y007085D01*
X011905Y006975D01*
X011850Y006920D01*
X011685Y006920D01*
X011685Y006810D02*
X011685Y007140D01*
X011795Y006920D02*
X011905Y006810D01*
X012053Y006810D02*
X012274Y006810D01*
X012163Y006810D02*
X012163Y007140D01*
X012053Y007030D01*
X012422Y007085D02*
X012477Y007140D01*
X012587Y007140D01*
X012642Y007085D01*
X012642Y007030D01*
X012422Y006810D01*
X012642Y006810D01*
X012642Y006140D02*
X012422Y006140D01*
X012422Y005975D01*
X012532Y006030D01*
X012587Y006030D01*
X012642Y005975D01*
X012642Y005865D01*
X012587Y005810D01*
X012477Y005810D01*
X012422Y005865D01*
X012274Y005810D02*
X012053Y005810D01*
X012163Y005810D02*
X012163Y006140D01*
X012053Y006030D01*
X011905Y006085D02*
X011850Y006140D01*
X011740Y006140D01*
X011685Y006085D01*
X011685Y005865D01*
X011740Y005810D01*
X011850Y005810D01*
X011905Y005865D01*
X011850Y005265D02*
X011685Y005265D01*
X011685Y004935D01*
X011685Y005045D02*
X011850Y005045D01*
X011905Y005100D01*
X011905Y005210D01*
X011850Y005265D01*
X011795Y005045D02*
X011905Y004935D01*
X012053Y004935D02*
X012274Y004935D01*
X012163Y004935D02*
X012163Y005265D01*
X012053Y005155D01*
X012422Y005210D02*
X012477Y005265D01*
X012587Y005265D01*
X012642Y005210D01*
X012642Y005155D01*
X012587Y005100D01*
X012642Y005045D01*
X012642Y004990D01*
X012587Y004935D01*
X012477Y004935D01*
X012422Y004990D01*
X012532Y005100D02*
X012587Y005100D01*
X012587Y007685D02*
X012587Y008015D01*
X012422Y007850D01*
X012642Y007850D01*
X012740Y012685D02*
X012520Y012685D01*
X012520Y012740D01*
X012740Y012960D01*
X012740Y013015D01*
X012520Y013015D01*
X012888Y013015D02*
X012998Y013015D01*
X012943Y013015D02*
X012943Y012685D01*
X012888Y012685D02*
X012998Y012685D01*
X013134Y012685D02*
X013134Y013015D01*
X013354Y013015D01*
X013244Y012850D02*
X013134Y012850D01*
X013870Y012740D02*
X013925Y012685D01*
X014036Y012685D01*
X014091Y012740D01*
X014091Y012960D01*
X014036Y013015D01*
X013925Y013015D01*
X013870Y012960D01*
X013870Y012740D01*
X014239Y013015D02*
X014459Y013015D01*
X014349Y013015D02*
X014349Y012685D01*
X014607Y012685D02*
X014607Y013015D01*
X014607Y012850D02*
X014827Y012850D01*
X014975Y012850D02*
X015085Y012850D01*
X014975Y013015D02*
X014975Y012685D01*
X015196Y012685D01*
X015344Y012685D02*
X015344Y013015D01*
X015509Y013015D01*
X015564Y012960D01*
X015564Y012850D01*
X015509Y012795D01*
X015344Y012795D01*
X015454Y012795D02*
X015564Y012685D01*
X015196Y013015D02*
X014975Y013015D01*
X014827Y013015D02*
X014827Y012685D01*
X016080Y012740D02*
X016135Y012685D01*
X016245Y012685D01*
X016300Y012740D01*
X016300Y012795D01*
X016245Y012850D01*
X016135Y012850D01*
X016080Y012905D01*
X016080Y012960D01*
X016135Y013015D01*
X016245Y013015D01*
X016300Y012960D01*
X016449Y013015D02*
X016559Y013015D01*
X016504Y013015D02*
X016504Y012685D01*
X016449Y012685D02*
X016559Y012685D01*
X016694Y012685D02*
X016694Y013015D01*
X016859Y013015D01*
X016914Y012960D01*
X016914Y012740D01*
X016859Y012685D01*
X016694Y012685D01*
X017062Y012685D02*
X017283Y012685D01*
X017173Y012850D02*
X017062Y012850D01*
X017062Y013015D02*
X017062Y012685D01*
X017062Y013015D02*
X017283Y013015D01*
X020060Y011078D02*
X020490Y011078D01*
X020490Y010935D02*
X020490Y011222D01*
X020203Y010935D02*
X020060Y011078D01*
X020322Y008065D02*
X020432Y008065D01*
X020377Y008065D02*
X020377Y007790D01*
X020322Y007735D01*
X020267Y007735D01*
X020212Y007790D01*
X020580Y008065D02*
X020800Y008065D01*
X020690Y008065D02*
X020690Y007735D01*
X020948Y007735D02*
X020948Y007955D01*
X021058Y008065D01*
X021169Y007955D01*
X021169Y007735D01*
X021317Y007790D02*
X021317Y008010D01*
X021372Y008065D01*
X021482Y008065D01*
X021537Y008010D01*
X021537Y007900D02*
X021427Y007900D01*
X021537Y007900D02*
X021537Y007790D01*
X021482Y007735D01*
X021372Y007735D01*
X021317Y007790D01*
X021169Y007900D02*
X020948Y007900D01*
X021058Y003615D02*
X021169Y003615D01*
X021114Y003615D02*
X021114Y003340D01*
X021058Y003285D01*
X021003Y003285D01*
X020948Y003340D01*
X021317Y003340D02*
X021372Y003285D01*
X021482Y003285D01*
X021537Y003340D01*
X021537Y003450D01*
X021482Y003505D01*
X021427Y003505D01*
X021317Y003450D01*
X021317Y003615D01*
X021537Y003615D01*
X020355Y001265D02*
X020466Y001155D01*
X020466Y000935D01*
X020466Y001100D02*
X020245Y001100D01*
X020245Y001155D02*
X020355Y001265D01*
X020245Y001155D02*
X020245Y000935D01*
X020097Y000990D02*
X020042Y000935D01*
X019932Y000935D01*
X019877Y000990D01*
X019932Y001100D02*
X020042Y001100D01*
X020097Y001045D01*
X020097Y000990D01*
X019932Y001100D02*
X019877Y001155D01*
X019877Y001210D01*
X019932Y001265D01*
X020042Y001265D01*
X020097Y001210D01*
X019729Y001265D02*
X019729Y000990D01*
X019674Y000935D01*
X019564Y000935D01*
X019509Y000990D01*
X019509Y001265D01*
X018992Y001265D02*
X018992Y000935D01*
X018772Y001265D01*
X018772Y000935D01*
X018637Y000935D02*
X018527Y000935D01*
X018582Y000935D02*
X018582Y001265D01*
X018527Y001265D02*
X018637Y001265D01*
X018010Y001265D02*
X017790Y001265D01*
X017790Y000935D01*
X018010Y000935D01*
X017900Y001100D02*
X017790Y001100D01*
X017642Y000990D02*
X017642Y001210D01*
X017587Y001265D01*
X017422Y001265D01*
X017422Y000935D01*
X017587Y000935D01*
X017642Y000990D01*
X017274Y000935D02*
X017274Y001155D01*
X017163Y001265D01*
X017053Y001155D01*
X017053Y000935D01*
X016905Y000935D02*
X016905Y001265D01*
X016795Y001155D01*
X016685Y001265D01*
X016685Y000935D01*
X017053Y001100D02*
X017274Y001100D01*
X018092Y001985D02*
X018202Y001985D01*
X018257Y002040D01*
X018092Y001985D02*
X018037Y002040D01*
X018037Y002260D01*
X018092Y002315D01*
X018202Y002315D01*
X018257Y002260D01*
X032285Y011045D02*
X032285Y011155D01*
X032285Y011100D02*
X032560Y011100D01*
X032615Y011045D01*
X032615Y010990D01*
X032560Y010935D01*
X033310Y010630D02*
X033420Y010740D01*
X033420Y010410D01*
X033310Y010410D02*
X033530Y010410D01*
X034310Y010410D02*
X034530Y010630D01*
X034530Y010685D01*
X034475Y010740D01*
X034365Y010740D01*
X034310Y010685D01*
X034310Y010410D02*
X034530Y010410D01*
X032615Y011303D02*
X032285Y011303D01*
X032285Y011468D01*
X032340Y011524D01*
X032450Y011524D01*
X032505Y011468D01*
X032505Y011303D01*
X032615Y011672D02*
X032615Y011892D01*
X032615Y011782D02*
X032285Y011782D01*
X032395Y011672D01*
X029306Y013685D02*
X029086Y013685D01*
X029086Y013740D01*
X029306Y013960D01*
X029306Y014015D01*
X029086Y014015D01*
X028938Y014015D02*
X028938Y013685D01*
X028938Y013850D02*
X028717Y013850D01*
X028717Y013685D02*
X028717Y014015D01*
X028569Y014015D02*
X028569Y013685D01*
X028349Y013685D02*
X028349Y014015D01*
X028459Y013905D01*
X028569Y014015D01*
X027833Y013960D02*
X027612Y013740D01*
X027668Y013685D01*
X027778Y013685D01*
X027833Y013740D01*
X027833Y013960D01*
X027778Y014015D01*
X027668Y014015D01*
X027612Y013960D01*
X027612Y013740D01*
X027483Y013740D02*
X027483Y013685D01*
X027428Y013685D01*
X027428Y013740D01*
X027483Y013740D01*
X027280Y013740D02*
X027280Y013795D01*
X027225Y013850D01*
X027115Y013850D01*
X027060Y013905D01*
X027060Y013960D01*
X027115Y014015D01*
X027225Y014015D01*
X027280Y013960D01*
X027280Y013905D01*
X027225Y013850D01*
X027115Y013850D02*
X027060Y013795D01*
X027060Y013740D01*
X027115Y013685D01*
X027225Y013685D01*
X027280Y013740D01*
X025599Y012257D02*
X025599Y012202D01*
X025544Y012147D01*
X025599Y012092D01*
X025599Y012037D01*
X025544Y011982D01*
X025434Y011982D01*
X025379Y012037D01*
X025231Y012037D02*
X025231Y012313D01*
X025379Y012257D02*
X025434Y012313D01*
X025544Y012313D01*
X025599Y012257D01*
X025544Y012147D02*
X025489Y012147D01*
X025231Y012037D02*
X025176Y011982D01*
X025066Y011982D01*
X025011Y012037D01*
X025011Y012313D01*
X026220Y015735D02*
X026220Y015900D01*
X026330Y016010D01*
X026330Y016065D01*
X026478Y015955D02*
X026588Y016065D01*
X026588Y015735D01*
X026478Y015735D02*
X026699Y015735D01*
X026220Y015900D02*
X026110Y016010D01*
X026110Y016065D01*
X026990Y017310D02*
X027100Y017310D01*
X027155Y017365D01*
X027303Y017310D02*
X027524Y017310D01*
X027413Y017310D02*
X027413Y017640D01*
X027303Y017530D01*
X027155Y017585D02*
X027100Y017640D01*
X026990Y017640D01*
X026935Y017585D01*
X026935Y017365D01*
X026990Y017310D01*
X027672Y017310D02*
X027892Y017530D01*
X027892Y017585D01*
X027837Y017640D01*
X027727Y017640D01*
X027672Y017585D01*
X027672Y017310D02*
X027892Y017310D01*
X027185Y018560D02*
X026910Y018560D01*
X026910Y018780D02*
X027185Y018780D01*
X027240Y018725D01*
X027240Y018615D01*
X027185Y018560D01*
X027240Y018928D02*
X027020Y019149D01*
X026965Y019149D01*
X026910Y019093D01*
X026910Y018983D01*
X026965Y018928D01*
X027240Y018928D02*
X027240Y019149D01*
X029935Y017585D02*
X029935Y017365D01*
X029990Y017310D01*
X030100Y017310D01*
X030155Y017365D01*
X030303Y017310D02*
X030524Y017310D01*
X030413Y017310D02*
X030413Y017640D01*
X030303Y017530D01*
X030155Y017585D02*
X030100Y017640D01*
X029990Y017640D01*
X029935Y017585D01*
X030672Y017585D02*
X030727Y017640D01*
X030837Y017640D01*
X030892Y017585D01*
X030892Y017530D01*
X030837Y017475D01*
X030892Y017420D01*
X030892Y017365D01*
X030837Y017310D01*
X030727Y017310D01*
X030672Y017365D01*
X030782Y017475D02*
X030837Y017475D01*
X032560Y019115D02*
X032615Y019060D01*
X032670Y019060D01*
X032725Y019115D01*
X032725Y019390D01*
X032670Y019390D02*
X032780Y019390D01*
X032928Y019335D02*
X032983Y019390D01*
X033093Y019390D01*
X033149Y019335D01*
X033149Y019280D01*
X032928Y019060D01*
X033149Y019060D01*
X035435Y020455D02*
X035435Y020620D01*
X035490Y020675D01*
X035600Y020675D01*
X035655Y020620D01*
X035655Y020455D01*
X035765Y020455D02*
X035435Y020455D01*
X035655Y020565D02*
X035765Y020675D01*
X035765Y020823D02*
X035435Y020823D01*
X035765Y021044D01*
X035435Y021044D01*
X035545Y021192D02*
X035435Y021302D01*
X035765Y021302D01*
X035765Y021192D02*
X035765Y021412D01*
X033240Y023810D02*
X032910Y023810D01*
X032910Y023975D01*
X032965Y024030D01*
X033075Y024030D01*
X033130Y023975D01*
X033130Y023810D01*
X033130Y023920D02*
X033240Y024030D01*
X033240Y024178D02*
X033240Y024399D01*
X033240Y024288D02*
X032910Y024288D01*
X033020Y024178D01*
X031593Y025685D02*
X031483Y025685D01*
X031428Y025740D01*
X031428Y025850D01*
X031593Y025850D01*
X031649Y025795D01*
X031649Y025740D01*
X031593Y025685D01*
X031428Y025850D02*
X031538Y025960D01*
X031649Y026015D01*
X031280Y025960D02*
X031225Y026015D01*
X031115Y026015D01*
X031060Y025960D01*
X031060Y025740D01*
X031115Y025685D01*
X031225Y025685D01*
X031280Y025740D01*
X029649Y025475D02*
X029428Y025475D01*
X029593Y025640D01*
X029593Y025310D01*
X029280Y025365D02*
X029225Y025310D01*
X029115Y025310D01*
X029060Y025365D01*
X029060Y025585D01*
X029115Y025640D01*
X029225Y025640D01*
X029280Y025585D01*
X027865Y024343D02*
X027865Y024233D01*
X027810Y024178D01*
X027810Y024030D02*
X027865Y023975D01*
X027865Y023865D01*
X027810Y023810D01*
X027590Y023810D01*
X027535Y023865D01*
X027535Y023975D01*
X027590Y024030D01*
X027590Y024178D02*
X027535Y024233D01*
X027535Y024343D01*
X027590Y024399D01*
X027645Y024399D01*
X027700Y024343D01*
X027755Y024399D01*
X027810Y024399D01*
X027865Y024343D01*
X027700Y024343D02*
X027700Y024288D01*
X030060Y023460D02*
X030060Y023240D01*
X030115Y023185D01*
X030225Y023185D01*
X030280Y023240D01*
X030428Y023240D02*
X030483Y023185D01*
X030593Y023185D01*
X030649Y023240D01*
X030649Y023350D01*
X030593Y023405D01*
X030538Y023405D01*
X030428Y023350D01*
X030428Y023515D01*
X030649Y023515D01*
X030280Y023460D02*
X030225Y023515D01*
X030115Y023515D01*
X030060Y023460D01*
X024537Y021950D02*
X024317Y021950D01*
X024482Y022115D01*
X024482Y021785D01*
X024169Y021785D02*
X024058Y021895D01*
X024114Y021895D02*
X023948Y021895D01*
X023948Y021785D02*
X023948Y022115D01*
X024114Y022115D01*
X024169Y022060D01*
X024169Y021950D01*
X024114Y021895D01*
X024114Y021365D02*
X024003Y021365D01*
X023948Y021310D01*
X023948Y021090D01*
X024003Y021035D01*
X024114Y021035D01*
X024169Y021090D01*
X024317Y021090D02*
X024372Y021035D01*
X024482Y021035D01*
X024537Y021090D01*
X024537Y021310D01*
X024482Y021365D01*
X024372Y021365D01*
X024317Y021310D01*
X024317Y021255D01*
X024372Y021200D01*
X024537Y021200D01*
X024169Y021310D02*
X024114Y021365D01*
X022810Y018899D02*
X022865Y018843D01*
X022865Y018733D01*
X022810Y018678D01*
X022755Y018678D01*
X022700Y018733D01*
X022700Y018843D01*
X022755Y018899D01*
X022810Y018899D01*
X022700Y018843D02*
X022645Y018899D01*
X022590Y018899D01*
X022535Y018843D01*
X022535Y018733D01*
X022590Y018678D01*
X022645Y018678D01*
X022700Y018733D01*
X022700Y018530D02*
X022755Y018475D01*
X022755Y018310D01*
X022865Y018310D02*
X022535Y018310D01*
X022535Y018475D01*
X022590Y018530D01*
X022700Y018530D01*
X022755Y018420D02*
X022865Y018530D01*
X019615Y018990D02*
X019615Y019100D01*
X019560Y019155D01*
X019615Y019303D02*
X019615Y019524D01*
X019615Y019413D02*
X019285Y019413D01*
X019395Y019303D01*
X019340Y019155D02*
X019285Y019100D01*
X019285Y018990D01*
X019340Y018935D01*
X019560Y018935D01*
X019615Y018990D01*
X019615Y019672D02*
X019615Y019892D01*
X019615Y019782D02*
X019285Y019782D01*
X019395Y019672D01*
X015274Y022115D02*
X015218Y022060D01*
X015108Y022060D01*
X015053Y022115D01*
X015053Y022170D01*
X015108Y022225D01*
X015218Y022225D01*
X015274Y022170D01*
X015274Y022115D01*
X015218Y022225D02*
X015274Y022280D01*
X015274Y022335D01*
X015218Y022390D01*
X015108Y022390D01*
X015053Y022335D01*
X015053Y022280D01*
X015108Y022225D01*
X014905Y022115D02*
X014850Y022060D01*
X014740Y022060D01*
X014685Y022115D01*
X014685Y022335D01*
X014740Y022390D01*
X014850Y022390D01*
X014905Y022335D01*
X016435Y023615D02*
X016490Y023560D01*
X016600Y023560D01*
X016655Y023615D01*
X016655Y023890D01*
X016803Y023780D02*
X016913Y023890D01*
X016913Y023560D01*
X016803Y023560D02*
X017024Y023560D01*
X016435Y023615D02*
X016435Y023890D01*
X019285Y023718D02*
X019285Y023608D01*
X019340Y023553D01*
X019340Y023405D02*
X019450Y023405D01*
X019505Y023350D01*
X019505Y023185D01*
X019615Y023185D02*
X019285Y023185D01*
X019285Y023350D01*
X019340Y023405D01*
X019505Y023295D02*
X019615Y023405D01*
X019615Y023553D02*
X019395Y023774D01*
X019340Y023774D01*
X019285Y023718D01*
X019615Y023774D02*
X019615Y023553D01*
X021685Y024685D02*
X021850Y024685D01*
X021905Y024740D01*
X021905Y024795D01*
X021850Y024850D01*
X021685Y024850D01*
X021685Y024685D02*
X021685Y025015D01*
X021850Y025015D01*
X021905Y024960D01*
X021905Y024905D01*
X021850Y024850D01*
X022053Y024905D02*
X022163Y025015D01*
X022163Y024685D01*
X022053Y024685D02*
X022274Y024685D01*
X016740Y027310D02*
X016410Y027310D01*
X016410Y027530D01*
X016520Y027678D02*
X016410Y027788D01*
X016740Y027788D01*
X016740Y027678D02*
X016740Y027899D01*
X016575Y027420D02*
X016575Y027310D01*
X013343Y024015D02*
X013399Y023960D01*
X013399Y023905D01*
X013343Y023850D01*
X013399Y023795D01*
X013399Y023740D01*
X013343Y023685D01*
X013233Y023685D01*
X013178Y023740D01*
X013288Y023850D02*
X013343Y023850D01*
X013343Y024015D02*
X013233Y024015D01*
X013178Y023960D01*
X013030Y023960D02*
X013030Y023850D01*
X012975Y023795D01*
X012810Y023795D01*
X012810Y023685D02*
X012810Y024015D01*
X012975Y024015D01*
X013030Y023960D01*
X012920Y023795D02*
X013030Y023685D01*
X011365Y023725D02*
X011365Y023615D01*
X011310Y023560D01*
X011090Y023560D01*
X011035Y023615D01*
X011035Y023725D01*
X011090Y023780D01*
X011310Y023780D01*
X011365Y023725D01*
X011365Y023780D02*
X011255Y023670D01*
X011365Y023928D02*
X011365Y024149D01*
X011365Y024038D02*
X011035Y024038D01*
X011145Y023928D01*
X009215Y022841D02*
X009160Y022841D01*
X008940Y023061D01*
X008885Y023061D01*
X008885Y022841D01*
X008940Y022693D02*
X008885Y022638D01*
X008885Y022528D01*
X008940Y022472D01*
X009160Y022472D01*
X009215Y022528D01*
X009215Y022638D01*
X009160Y022693D01*
X008174Y021810D02*
X008174Y021755D01*
X008118Y021700D01*
X008174Y021645D01*
X008174Y021590D01*
X008118Y021535D01*
X008008Y021535D01*
X007953Y021590D01*
X007805Y021590D02*
X007750Y021535D01*
X007640Y021535D01*
X007585Y021590D01*
X007585Y021810D01*
X007640Y021865D01*
X007750Y021865D01*
X007805Y021810D01*
X007805Y021590D01*
X007805Y021535D02*
X007695Y021645D01*
X007953Y021810D02*
X008008Y021865D01*
X008118Y021865D01*
X008174Y021810D01*
X008118Y021700D02*
X008063Y021700D01*
X005424Y021190D02*
X005313Y021135D01*
X005203Y021025D01*
X005368Y021025D01*
X005424Y020970D01*
X005424Y020915D01*
X005368Y020860D01*
X005258Y020860D01*
X005203Y020915D01*
X005203Y021025D01*
X005055Y021025D02*
X005000Y020970D01*
X004835Y020970D01*
X004835Y020860D02*
X004835Y021190D01*
X005000Y021190D01*
X005055Y021135D01*
X005055Y021025D01*
X004945Y020970D02*
X005055Y020860D01*
X003790Y019968D02*
X003460Y019968D01*
X003625Y019803D01*
X003625Y020024D01*
X003515Y019655D02*
X003735Y019655D01*
X003790Y019600D01*
X003790Y019490D01*
X003735Y019435D01*
X003515Y019435D01*
X003460Y019490D01*
X003460Y019600D01*
X003515Y019655D01*
X003680Y019545D02*
X003790Y019655D01*
X006060Y018057D02*
X006060Y017770D01*
X006275Y017770D01*
X006203Y017914D01*
X006203Y017986D01*
X006275Y018057D01*
X006418Y018057D01*
X006490Y017986D01*
X006490Y017842D01*
X006418Y017770D01*
X006490Y017597D02*
X006490Y017310D01*
X006490Y017453D02*
X006060Y017453D01*
X006203Y017310D01*
X007285Y018310D02*
X007285Y018475D01*
X007340Y018530D01*
X007450Y018530D01*
X007505Y018475D01*
X007505Y018310D01*
X007615Y018310D02*
X007285Y018310D01*
X007505Y018420D02*
X007615Y018530D01*
X007615Y018678D02*
X007560Y018678D01*
X007340Y018899D01*
X007285Y018899D01*
X007285Y018678D01*
X004424Y017610D02*
X004424Y017390D01*
X004368Y017335D01*
X004258Y017335D01*
X004203Y017390D01*
X004258Y017500D02*
X004424Y017500D01*
X004424Y017610D02*
X004368Y017665D01*
X004258Y017665D01*
X004203Y017610D01*
X004203Y017555D01*
X004258Y017500D01*
X004055Y017500D02*
X004000Y017445D01*
X003835Y017445D01*
X003835Y017335D02*
X003835Y017665D01*
X004000Y017665D01*
X004055Y017610D01*
X004055Y017500D01*
X003945Y017445D02*
X004055Y017335D01*
X010660Y018865D02*
X010715Y018810D01*
X010935Y018810D01*
X010990Y018865D01*
X010990Y018975D01*
X010935Y019030D01*
X010990Y019178D02*
X010990Y019399D01*
X010990Y019288D02*
X010660Y019288D01*
X010770Y019178D01*
X010715Y019030D02*
X010660Y018975D01*
X010660Y018865D01*
X010715Y019547D02*
X010660Y019602D01*
X010660Y019712D01*
X010715Y019767D01*
X010935Y019547D01*
X010990Y019602D01*
X010990Y019712D01*
X010935Y019767D01*
X010715Y019767D01*
X010715Y019547D02*
X010935Y019547D01*
X011005Y020560D02*
X011005Y020725D01*
X010950Y020780D01*
X010840Y020780D01*
X010785Y020725D01*
X010785Y020560D01*
X011115Y020560D01*
X011005Y020670D02*
X011115Y020780D01*
X011060Y020928D02*
X011115Y020983D01*
X011115Y021093D01*
X011060Y021149D01*
X010950Y021149D01*
X010895Y021093D01*
X010895Y021038D01*
X010950Y020928D01*
X010785Y020928D01*
X010785Y021149D01*
X012685Y020210D02*
X012685Y019990D01*
X012740Y019935D01*
X012850Y019935D01*
X012905Y019990D01*
X012905Y020210D01*
X012850Y020265D01*
X012740Y020265D01*
X012685Y020210D01*
X012795Y020045D02*
X012905Y019935D01*
X013053Y019935D02*
X013274Y020155D01*
X013274Y020210D01*
X013218Y020265D01*
X013108Y020265D01*
X013053Y020210D01*
X013053Y019935D02*
X013274Y019935D01*
X011524Y025685D02*
X011303Y025685D01*
X011524Y025905D01*
X011524Y025960D01*
X011468Y026015D01*
X011358Y026015D01*
X011303Y025960D01*
X011155Y025960D02*
X011100Y026015D01*
X010990Y026015D01*
X010935Y025960D01*
X010935Y025740D01*
X010990Y025685D01*
X011100Y025685D01*
X011155Y025740D01*
X009240Y027053D02*
X009240Y027163D01*
X009185Y027218D01*
X009240Y027366D02*
X009240Y027586D01*
X009240Y027476D02*
X008910Y027476D01*
X009020Y027366D01*
X008965Y027218D02*
X008910Y027163D01*
X008910Y027053D01*
X008965Y026997D01*
X009185Y026997D01*
X009240Y027053D01*
X004163Y024515D02*
X004163Y024185D01*
X004053Y024185D02*
X004274Y024185D01*
X004053Y024405D02*
X004163Y024515D01*
X003905Y024460D02*
X003905Y024240D01*
X003850Y024185D01*
X003685Y024185D01*
X003685Y024515D01*
X003850Y024515D01*
X003905Y024460D01*
X003850Y023465D02*
X003685Y023465D01*
X003685Y023135D01*
X003850Y023135D01*
X003905Y023190D01*
X003905Y023410D01*
X003850Y023465D01*
X004053Y023410D02*
X004108Y023465D01*
X004218Y023465D01*
X004274Y023410D01*
X004274Y023355D01*
X004053Y023135D01*
X004274Y023135D01*
X010310Y013015D02*
X010420Y012905D01*
X010530Y013015D01*
X010530Y012685D01*
X010678Y012740D02*
X010733Y012685D01*
X010843Y012685D01*
X010899Y012740D01*
X010899Y012960D01*
X010843Y013015D01*
X010733Y013015D01*
X010678Y012960D01*
X010678Y012740D01*
X011047Y012740D02*
X011047Y013015D01*
X011267Y013015D02*
X011267Y012740D01*
X011212Y012685D01*
X011102Y012685D01*
X011047Y012740D01*
X011415Y012685D02*
X011415Y013015D01*
X011635Y012685D01*
X011635Y013015D01*
X011783Y013015D02*
X012003Y013015D01*
X011893Y013015D02*
X011893Y012685D01*
X010310Y012685D02*
X010310Y013015D01*
X027410Y028295D02*
X027410Y028405D01*
X027410Y028350D02*
X027685Y028350D01*
X027740Y028295D01*
X027740Y028240D01*
X027685Y028185D01*
X027740Y028553D02*
X027740Y028774D01*
X027740Y028663D02*
X027410Y028663D01*
X027520Y028553D01*
X036685Y024515D02*
X036685Y024185D01*
X036685Y024295D02*
X036850Y024295D01*
X036905Y024350D01*
X036905Y024460D01*
X036850Y024515D01*
X036685Y024515D01*
X036795Y024295D02*
X036905Y024185D01*
X037053Y024240D02*
X037108Y024185D01*
X037218Y024185D01*
X037274Y024240D01*
X037274Y024295D01*
X037218Y024350D01*
X037108Y024350D01*
X037053Y024405D01*
X037053Y024460D01*
X037108Y024515D01*
X037218Y024515D01*
X037274Y024460D01*
X037422Y024350D02*
X037642Y024350D01*
X037790Y024460D02*
X037845Y024515D01*
X037955Y024515D01*
X038010Y024460D01*
X038010Y024405D01*
X037790Y024185D01*
X038010Y024185D01*
X038158Y024240D02*
X038213Y024185D01*
X038323Y024185D01*
X038378Y024240D01*
X038378Y024295D01*
X038323Y024350D01*
X038268Y024350D01*
X038323Y024350D02*
X038378Y024405D01*
X038378Y024460D01*
X038323Y024515D01*
X038213Y024515D01*
X038158Y024460D01*
X038527Y024460D02*
X038582Y024515D01*
X038692Y024515D01*
X038747Y024460D01*
X038747Y024405D01*
X038527Y024185D01*
X038747Y024185D01*
X041185Y024240D02*
X041240Y024185D01*
X041295Y024185D01*
X041350Y024240D01*
X041350Y024515D01*
X041295Y024515D02*
X041405Y024515D01*
X041553Y024460D02*
X041608Y024515D01*
X041718Y024515D01*
X041774Y024460D01*
X041774Y024405D01*
X041718Y024350D01*
X041774Y024295D01*
X041774Y024240D01*
X041718Y024185D01*
X041608Y024185D01*
X041553Y024240D01*
X041663Y024350D02*
X041718Y024350D01*
X035825Y017644D02*
X035880Y017589D01*
X035880Y017424D01*
X035990Y017424D02*
X035660Y017424D01*
X035660Y017589D01*
X035715Y017644D01*
X035825Y017644D01*
X035880Y017276D02*
X035935Y017276D01*
X035990Y017221D01*
X035990Y017111D01*
X035935Y017056D01*
X035825Y017111D02*
X035770Y017056D01*
X035715Y017056D01*
X035660Y017111D01*
X035660Y017221D01*
X035715Y017276D01*
X035825Y017221D02*
X035880Y017276D01*
X035825Y017221D02*
X035825Y017111D01*
X035990Y016920D02*
X035990Y016810D01*
X035990Y016865D02*
X035660Y016865D01*
X035660Y016810D02*
X035660Y016920D01*
X035740Y014892D02*
X035740Y014672D01*
X035520Y014892D01*
X035465Y014892D01*
X035410Y014837D01*
X035410Y014727D01*
X035465Y014672D01*
X035410Y014524D02*
X035740Y014524D01*
X035410Y014303D01*
X035740Y014303D01*
X035740Y014155D02*
X035630Y014045D01*
X035630Y014100D02*
X035630Y013935D01*
X035740Y013935D02*
X035410Y013935D01*
X035410Y014100D01*
X035465Y014155D01*
X035575Y014155D01*
X035630Y014100D01*
X038920Y010515D02*
X039030Y010515D01*
X038975Y010515D02*
X038975Y010240D01*
X038920Y010185D01*
X038865Y010185D01*
X038810Y010240D01*
X039178Y010350D02*
X039399Y010350D01*
X039343Y010185D02*
X039343Y010515D01*
X039178Y010350D01*
X036267Y008023D02*
X036047Y007803D01*
X036102Y007748D01*
X036212Y007748D01*
X036267Y007803D01*
X036267Y008023D01*
X036212Y008078D01*
X036102Y008078D01*
X036047Y008023D01*
X036047Y007803D01*
X035899Y007748D02*
X035678Y007748D01*
X035788Y007748D02*
X035788Y008078D01*
X035678Y007968D01*
X035530Y008023D02*
X035530Y007913D01*
X035475Y007858D01*
X035310Y007858D01*
X035420Y007858D02*
X035530Y007748D01*
X035310Y007748D02*
X035310Y008078D01*
X035475Y008078D01*
X035530Y008023D01*
X035475Y007265D02*
X035530Y007210D01*
X035530Y007100D01*
X035475Y007045D01*
X035310Y007045D01*
X035310Y006935D02*
X035310Y007265D01*
X035475Y007265D01*
X035420Y007045D02*
X035530Y006935D01*
X035678Y006935D02*
X035899Y006935D01*
X035788Y006935D02*
X035788Y007265D01*
X035678Y007155D01*
X036047Y007155D02*
X036157Y007265D01*
X036157Y006935D01*
X036047Y006935D02*
X036267Y006935D01*
X038935Y005140D02*
X038935Y004865D01*
X038990Y004810D01*
X039100Y004810D01*
X039155Y004865D01*
X039155Y005140D01*
X039303Y005085D02*
X039303Y005030D01*
X039358Y004975D01*
X039468Y004975D01*
X039524Y004920D01*
X039524Y004865D01*
X039468Y004810D01*
X039358Y004810D01*
X039303Y004865D01*
X039303Y005085D02*
X039358Y005140D01*
X039468Y005140D01*
X039524Y005085D01*
X039672Y005140D02*
X039672Y004810D01*
X039837Y004810D01*
X039892Y004865D01*
X039892Y004920D01*
X039837Y004975D01*
X039672Y004975D01*
X039837Y004975D02*
X039892Y005030D01*
X039892Y005085D01*
X039837Y005140D01*
X039672Y005140D01*
X040408Y005085D02*
X040408Y004865D01*
X040463Y004810D01*
X040573Y004810D01*
X040628Y004865D01*
X040628Y005085D01*
X040573Y005140D01*
X040463Y005140D01*
X040408Y005085D01*
X040777Y005140D02*
X040997Y005140D01*
X040887Y005140D02*
X040887Y004810D01*
X041145Y004865D02*
X041145Y005085D01*
X041200Y005140D01*
X041310Y005140D01*
X041365Y005085D01*
X041365Y004975D02*
X041255Y004975D01*
X041365Y004975D02*
X041365Y004865D01*
X041310Y004810D01*
X041200Y004810D01*
X041145Y004865D01*
X034287Y001700D02*
X034067Y001700D01*
X034232Y001865D01*
X034232Y001535D01*
X033919Y001535D02*
X033698Y001535D01*
X033808Y001535D02*
X033808Y001865D01*
X033698Y001755D01*
X033550Y001700D02*
X033495Y001645D01*
X033330Y001645D01*
X033330Y001535D02*
X033330Y001865D01*
X033495Y001865D01*
X033550Y001810D01*
X033550Y001700D01*
X033440Y001645D02*
X033550Y001535D01*
D13*
X024100Y001945D02*
X023827Y001945D01*
X023827Y002355D01*
X024100Y002355D01*
X023964Y002150D02*
X023827Y002150D01*
X023640Y001945D02*
X023640Y002355D01*
X023366Y002355D02*
X023366Y001945D01*
X023180Y001945D02*
X022906Y001945D01*
X022906Y002355D01*
X022651Y002355D02*
X022446Y002150D01*
X022719Y002150D01*
X022651Y001945D02*
X022651Y002355D01*
X022259Y002287D02*
X022190Y002355D01*
X022054Y002355D01*
X021985Y002287D01*
X021985Y002013D01*
X022054Y001945D01*
X022190Y001945D01*
X022259Y002013D01*
X022259Y002150D01*
X022122Y002150D01*
X021798Y001945D02*
X021593Y002150D01*
X021525Y002082D02*
X021798Y002355D01*
X021525Y002355D02*
X021525Y001945D01*
X020894Y001945D02*
X020758Y001808D01*
X020826Y001945D02*
X020894Y001945D01*
X020894Y002013D01*
X020826Y002013D01*
X020826Y001945D01*
X020475Y002013D02*
X020406Y001945D01*
X020270Y001945D01*
X020201Y002013D01*
X020338Y002150D02*
X020406Y002150D01*
X020475Y002082D01*
X020475Y002013D01*
X020406Y002150D02*
X020475Y002219D01*
X020475Y002287D01*
X020406Y002355D01*
X020270Y002355D01*
X020201Y002287D01*
X019878Y002355D02*
X019878Y001945D01*
X020014Y001945D02*
X019741Y001945D01*
X019554Y002013D02*
X019486Y001945D01*
X019349Y001945D01*
X019280Y002013D01*
X019554Y002287D01*
X019554Y002013D01*
X019280Y002013D02*
X019280Y002287D01*
X019349Y002355D01*
X019486Y002355D01*
X019554Y002287D01*
X019741Y002219D02*
X019878Y002355D01*
X019094Y002287D02*
X019025Y002355D01*
X018888Y002355D01*
X018820Y002287D01*
X019094Y002287D02*
X019094Y002219D01*
X018820Y001945D01*
X019094Y001945D01*
X017813Y002150D02*
X017815Y002186D01*
X017821Y002222D01*
X017831Y002258D01*
X017844Y002292D01*
X017861Y002324D01*
X017882Y002354D01*
X017905Y002382D01*
X017932Y002407D01*
X017961Y002429D01*
X017992Y002448D01*
X018025Y002463D01*
X018060Y002475D01*
X018095Y002483D01*
X018132Y002487D01*
X018168Y002487D01*
X018205Y002483D01*
X018240Y002475D01*
X018275Y002463D01*
X018308Y002448D01*
X018339Y002429D01*
X018368Y002407D01*
X018395Y002382D01*
X018418Y002354D01*
X018439Y002324D01*
X018456Y002292D01*
X018469Y002258D01*
X018479Y002222D01*
X018485Y002186D01*
X018487Y002150D01*
X018485Y002114D01*
X018479Y002078D01*
X018469Y002042D01*
X018456Y002008D01*
X018439Y001976D01*
X018418Y001946D01*
X018395Y001918D01*
X018368Y001893D01*
X018339Y001871D01*
X018308Y001852D01*
X018275Y001837D01*
X018240Y001825D01*
X018205Y001817D01*
X018168Y001813D01*
X018132Y001813D01*
X018095Y001817D01*
X018060Y001825D01*
X018025Y001837D01*
X017992Y001852D01*
X017961Y001871D01*
X017932Y001893D01*
X017905Y001918D01*
X017882Y001946D01*
X017861Y001976D01*
X017844Y002008D01*
X017831Y002042D01*
X017821Y002078D01*
X017815Y002114D01*
X017813Y002150D01*
X017498Y002355D02*
X017225Y002355D01*
X017361Y002355D02*
X017361Y001945D01*
X017038Y001945D02*
X017038Y002355D01*
X017038Y002150D02*
X016764Y002150D01*
X016577Y002150D02*
X016577Y002013D01*
X016509Y001945D01*
X016372Y001945D01*
X016304Y002013D01*
X016304Y002287D01*
X016372Y002355D01*
X016509Y002355D01*
X016577Y002287D01*
X016577Y002150D02*
X016441Y002150D01*
X016134Y001945D02*
X015997Y001945D01*
X016065Y001945D02*
X016065Y002355D01*
X015997Y002355D02*
X016134Y002355D01*
X015810Y002287D02*
X015810Y002150D01*
X015742Y002082D01*
X015537Y002082D01*
X015673Y002082D02*
X015810Y001945D01*
X015537Y001945D02*
X015537Y002355D01*
X015742Y002355D01*
X015810Y002287D01*
X015350Y002287D02*
X015350Y002355D01*
X015350Y002287D02*
X015213Y002150D01*
X015213Y001945D01*
X015213Y002150D02*
X015076Y002287D01*
X015076Y002355D01*
X014889Y002287D02*
X014889Y002150D01*
X014821Y002082D01*
X014616Y002082D01*
X014616Y001945D02*
X014616Y002355D01*
X014821Y002355D01*
X014889Y002287D01*
X014429Y002287D02*
X014429Y002013D01*
X014361Y001945D01*
X014224Y001945D01*
X014155Y002013D01*
X014155Y002287D01*
X014224Y002355D01*
X014361Y002355D01*
X014429Y002287D01*
X013969Y002287D02*
X013900Y002355D01*
X013763Y002355D01*
X013695Y002287D01*
X013695Y002013D01*
X013763Y001945D01*
X013900Y001945D01*
X013969Y002013D01*
X016764Y001945D02*
X016764Y002355D01*
X023366Y002355D02*
X023640Y001945D01*
X006480Y011195D02*
X006480Y011469D01*
X006480Y011332D02*
X006070Y011332D01*
X006206Y011195D01*
X006275Y011655D02*
X006275Y011929D01*
X006480Y011861D02*
X006070Y011861D01*
X006275Y011655D01*
X003230Y011628D02*
X003230Y011902D01*
X003230Y012089D02*
X002820Y012089D01*
X002820Y012294D01*
X002888Y012362D01*
X003025Y012362D01*
X003093Y012294D01*
X003093Y012089D01*
X003093Y012225D02*
X003230Y012362D01*
X002820Y011902D02*
X002820Y011628D01*
X003230Y011628D01*
X003230Y011441D02*
X002820Y011441D01*
X002956Y011305D01*
X002820Y011168D01*
X003230Y011168D01*
X003230Y010981D02*
X002820Y010981D01*
X002956Y010844D01*
X002820Y010707D01*
X003230Y010707D01*
X003230Y010521D02*
X002956Y010521D01*
X002820Y010384D01*
X002956Y010247D01*
X003230Y010247D01*
X003230Y010060D02*
X003093Y009923D01*
X003093Y009992D02*
X003093Y009787D01*
X003230Y009787D02*
X002820Y009787D01*
X002820Y009992D01*
X002888Y010060D01*
X003025Y010060D01*
X003093Y009992D01*
X003025Y010247D02*
X003025Y010521D01*
X002355Y010707D02*
X001945Y010981D01*
X002013Y011168D02*
X001945Y011236D01*
X001945Y011373D01*
X002013Y011441D01*
X002081Y011441D01*
X002355Y011168D01*
X002355Y011441D01*
X002150Y011628D02*
X002150Y011902D01*
X002150Y012089D02*
X002150Y012362D01*
X002150Y012549D02*
X002150Y012822D01*
X002355Y012754D02*
X001945Y012754D01*
X002150Y012549D01*
X002355Y012294D02*
X001945Y012294D01*
X002150Y012089D01*
X002355Y011833D02*
X001945Y011833D01*
X002150Y011628D01*
X003025Y011628D02*
X003025Y011765D01*
X002355Y010981D02*
X001945Y010707D01*
X001945Y010521D02*
X002355Y010247D01*
X002355Y010060D02*
X002355Y009787D01*
X002081Y010060D01*
X002013Y010060D01*
X001945Y009992D01*
X001945Y009855D01*
X002013Y009787D01*
X002355Y009600D02*
X002355Y009326D01*
X002355Y009463D02*
X001945Y009463D01*
X002081Y009326D01*
X002081Y009139D02*
X002013Y009139D01*
X001945Y009071D01*
X001945Y008934D01*
X002013Y008866D01*
X002013Y008679D02*
X001945Y008611D01*
X001945Y008474D01*
X002013Y008405D01*
X001945Y008219D02*
X002355Y007945D01*
X002355Y008219D02*
X001945Y007945D01*
X002355Y008405D02*
X002081Y008679D01*
X002013Y008679D01*
X002355Y008679D02*
X002355Y008405D01*
X002820Y008405D02*
X002820Y008611D01*
X002888Y008679D01*
X003025Y008679D01*
X003093Y008611D01*
X003093Y008405D01*
X003230Y008405D02*
X002820Y008405D01*
X002888Y008219D02*
X003025Y008219D01*
X003093Y008150D01*
X003093Y007945D01*
X003230Y007945D02*
X002820Y007945D01*
X002820Y008150D01*
X002888Y008219D01*
X003093Y008542D02*
X003230Y008679D01*
X003162Y008866D02*
X002888Y008866D01*
X002820Y008934D01*
X002820Y009071D01*
X002888Y009139D01*
X003162Y009139D01*
X003230Y009071D01*
X003230Y008934D01*
X003162Y008866D01*
X003162Y009326D02*
X002888Y009326D01*
X002820Y009395D01*
X002820Y009531D01*
X002888Y009600D01*
X003025Y009600D02*
X003025Y009463D01*
X003025Y009600D02*
X003162Y009600D01*
X003230Y009531D01*
X003230Y009395D01*
X003162Y009326D01*
X002355Y009139D02*
X002355Y008866D01*
X002081Y009139D01*
X005445Y014320D02*
X005445Y014594D01*
X005513Y014594D01*
X005787Y014320D01*
X005855Y014320D01*
X005855Y014594D01*
X005855Y014780D02*
X005855Y014917D01*
X005855Y014849D02*
X005445Y014849D01*
X005445Y014917D02*
X005445Y014780D01*
X005445Y015087D02*
X005445Y015361D01*
X005650Y015224D02*
X005650Y015087D01*
X005855Y015087D02*
X005445Y015087D01*
X020695Y017263D02*
X020763Y017195D01*
X020695Y017263D02*
X020695Y017400D01*
X020763Y017469D01*
X020831Y017469D01*
X021105Y017195D01*
X021105Y017469D01*
X021037Y017655D02*
X020968Y017655D01*
X020900Y017724D01*
X020900Y017861D01*
X020968Y017929D01*
X021037Y017929D01*
X021105Y017861D01*
X021105Y017724D01*
X021037Y017655D01*
X020900Y017724D02*
X020831Y017655D01*
X020763Y017655D01*
X020695Y017724D01*
X020695Y017861D01*
X020763Y017929D01*
X020831Y017929D01*
X020900Y017861D01*
D14*
X001460Y015340D02*
X001460Y015055D01*
X000890Y015055D01*
X000890Y015340D01*
X000985Y015435D01*
X001080Y015435D01*
X001175Y015340D01*
X001175Y015055D01*
X001270Y014791D02*
X001365Y014791D01*
X001460Y014696D01*
X001460Y014506D01*
X001365Y014410D01*
X001175Y014506D02*
X001175Y014696D01*
X001270Y014791D01*
X000985Y014791D02*
X000890Y014696D01*
X000890Y014506D01*
X000985Y014410D01*
X001080Y014410D01*
X001175Y014506D01*
X001365Y014146D02*
X000890Y014146D01*
X000890Y013766D02*
X001365Y013766D01*
X001460Y013861D01*
X001460Y014051D01*
X001365Y014146D01*
X001175Y013502D02*
X001175Y013121D01*
X001175Y012857D02*
X001175Y012477D01*
X001270Y012213D02*
X001365Y012213D01*
X001460Y012118D01*
X001460Y011927D01*
X001365Y011832D01*
X001175Y011927D02*
X001175Y012118D01*
X001270Y012213D01*
X000985Y012213D02*
X000890Y012118D01*
X000890Y011927D01*
X000985Y011832D01*
X001080Y011832D01*
X001175Y011927D01*
X001460Y012477D02*
X000890Y012477D01*
X000890Y012857D02*
X001460Y012857D01*
X001460Y011568D02*
X001080Y011568D01*
X000890Y011378D01*
X001080Y011188D01*
X001460Y011188D01*
X001460Y010924D02*
X001460Y010543D01*
X000890Y010543D01*
X000890Y010279D02*
X000890Y009899D01*
X001460Y009899D01*
X001175Y009899D02*
X001175Y010089D01*
X001175Y009634D02*
X001175Y009254D01*
X001460Y008990D02*
X001460Y008610D01*
X000890Y008610D01*
X000890Y008990D01*
X001175Y008800D02*
X001175Y008610D01*
X001175Y008345D02*
X001175Y008155D01*
X001175Y008345D02*
X001365Y008345D01*
X001460Y008250D01*
X001460Y008060D01*
X001365Y007965D01*
X000985Y007965D01*
X000890Y008060D01*
X000890Y008250D01*
X000985Y008345D01*
X001175Y011188D02*
X001175Y011568D01*
X001175Y015340D02*
X001270Y015435D01*
X001365Y015435D01*
X001460Y015340D01*
D15*
X003570Y014650D02*
X003572Y014686D01*
X003578Y014721D01*
X003587Y014755D01*
X003601Y014789D01*
X003617Y014820D01*
X003637Y014850D01*
X003660Y014877D01*
X003686Y014902D01*
X003715Y014923D01*
X003745Y014942D01*
X003778Y014957D01*
X003812Y014968D01*
X003847Y014976D01*
X003882Y014980D01*
X003918Y014980D01*
X003953Y014976D01*
X003988Y014968D01*
X004022Y014957D01*
X004055Y014942D01*
X004085Y014923D01*
X004114Y014902D01*
X004140Y014877D01*
X004163Y014850D01*
X004183Y014820D01*
X004199Y014789D01*
X004213Y014755D01*
X004222Y014721D01*
X004228Y014686D01*
X004230Y014650D01*
X004228Y014614D01*
X004222Y014579D01*
X004213Y014545D01*
X004199Y014511D01*
X004183Y014480D01*
X004163Y014450D01*
X004140Y014423D01*
X004114Y014398D01*
X004085Y014377D01*
X004055Y014358D01*
X004022Y014343D01*
X003988Y014332D01*
X003953Y014324D01*
X003918Y014320D01*
X003882Y014320D01*
X003847Y014324D01*
X003812Y014332D01*
X003778Y014343D01*
X003745Y014358D01*
X003715Y014377D01*
X003686Y014398D01*
X003660Y014423D01*
X003637Y014450D01*
X003617Y014480D01*
X003601Y014511D01*
X003587Y014545D01*
X003578Y014579D01*
X003572Y014614D01*
X003570Y014650D01*
X000900Y027087D02*
X000902Y027137D01*
X000908Y027186D01*
X000918Y027235D01*
X000931Y027282D01*
X000949Y027329D01*
X000970Y027374D01*
X000994Y027417D01*
X001022Y027458D01*
X001053Y027497D01*
X001087Y027533D01*
X001124Y027567D01*
X001164Y027597D01*
X001205Y027624D01*
X001249Y027648D01*
X001294Y027668D01*
X001341Y027684D01*
X001389Y027697D01*
X001438Y027706D01*
X001488Y027711D01*
X001537Y027712D01*
X001587Y027709D01*
X001636Y027702D01*
X001685Y027691D01*
X001732Y027677D01*
X001778Y027658D01*
X001823Y027636D01*
X001866Y027611D01*
X001906Y027582D01*
X001944Y027550D01*
X001980Y027516D01*
X002013Y027478D01*
X002042Y027438D01*
X002068Y027396D01*
X002091Y027352D01*
X002110Y027306D01*
X002126Y027259D01*
X002138Y027210D01*
X002146Y027161D01*
X002150Y027112D01*
X002150Y027062D01*
X002146Y027013D01*
X002138Y026964D01*
X002126Y026915D01*
X002110Y026868D01*
X002091Y026822D01*
X002068Y026778D01*
X002042Y026736D01*
X002013Y026696D01*
X001980Y026658D01*
X001944Y026624D01*
X001906Y026592D01*
X001866Y026563D01*
X001823Y026538D01*
X001778Y026516D01*
X001732Y026497D01*
X001685Y026483D01*
X001636Y026472D01*
X001587Y026465D01*
X001537Y026462D01*
X001488Y026463D01*
X001438Y026468D01*
X001389Y026477D01*
X001341Y026490D01*
X001294Y026506D01*
X001249Y026526D01*
X001205Y026550D01*
X001164Y026577D01*
X001124Y026607D01*
X001087Y026641D01*
X001053Y026677D01*
X001022Y026716D01*
X000994Y026757D01*
X000970Y026800D01*
X000949Y026845D01*
X000931Y026892D01*
X000918Y026939D01*
X000908Y026988D01*
X000902Y027037D01*
X000900Y027087D01*
X021695Y014650D02*
X021697Y014686D01*
X021703Y014721D01*
X021712Y014755D01*
X021726Y014789D01*
X021742Y014820D01*
X021762Y014850D01*
X021785Y014877D01*
X021811Y014902D01*
X021840Y014923D01*
X021870Y014942D01*
X021903Y014957D01*
X021937Y014968D01*
X021972Y014976D01*
X022007Y014980D01*
X022043Y014980D01*
X022078Y014976D01*
X022113Y014968D01*
X022147Y014957D01*
X022180Y014942D01*
X022210Y014923D01*
X022239Y014902D01*
X022265Y014877D01*
X022288Y014850D01*
X022308Y014820D01*
X022324Y014789D01*
X022338Y014755D01*
X022347Y014721D01*
X022353Y014686D01*
X022355Y014650D01*
X022353Y014614D01*
X022347Y014579D01*
X022338Y014545D01*
X022324Y014511D01*
X022308Y014480D01*
X022288Y014450D01*
X022265Y014423D01*
X022239Y014398D01*
X022210Y014377D01*
X022180Y014358D01*
X022147Y014343D01*
X022113Y014332D01*
X022078Y014324D01*
X022043Y014320D01*
X022007Y014320D01*
X021972Y014324D01*
X021937Y014332D01*
X021903Y014343D01*
X021870Y014358D01*
X021840Y014377D01*
X021811Y014398D01*
X021785Y014423D01*
X021762Y014450D01*
X021742Y014480D01*
X021726Y014511D01*
X021712Y014545D01*
X021703Y014579D01*
X021697Y014614D01*
X021695Y014650D01*
X028400Y027087D02*
X028402Y027137D01*
X028408Y027186D01*
X028418Y027235D01*
X028431Y027282D01*
X028449Y027329D01*
X028470Y027374D01*
X028494Y027417D01*
X028522Y027458D01*
X028553Y027497D01*
X028587Y027533D01*
X028624Y027567D01*
X028664Y027597D01*
X028705Y027624D01*
X028749Y027648D01*
X028794Y027668D01*
X028841Y027684D01*
X028889Y027697D01*
X028938Y027706D01*
X028988Y027711D01*
X029037Y027712D01*
X029087Y027709D01*
X029136Y027702D01*
X029185Y027691D01*
X029232Y027677D01*
X029278Y027658D01*
X029323Y027636D01*
X029366Y027611D01*
X029406Y027582D01*
X029444Y027550D01*
X029480Y027516D01*
X029513Y027478D01*
X029542Y027438D01*
X029568Y027396D01*
X029591Y027352D01*
X029610Y027306D01*
X029626Y027259D01*
X029638Y027210D01*
X029646Y027161D01*
X029650Y027112D01*
X029650Y027062D01*
X029646Y027013D01*
X029638Y026964D01*
X029626Y026915D01*
X029610Y026868D01*
X029591Y026822D01*
X029568Y026778D01*
X029542Y026736D01*
X029513Y026696D01*
X029480Y026658D01*
X029444Y026624D01*
X029406Y026592D01*
X029366Y026563D01*
X029323Y026538D01*
X029278Y026516D01*
X029232Y026497D01*
X029185Y026483D01*
X029136Y026472D01*
X029087Y026465D01*
X029037Y026462D01*
X028988Y026463D01*
X028938Y026468D01*
X028889Y026477D01*
X028841Y026490D01*
X028794Y026506D01*
X028749Y026526D01*
X028705Y026550D01*
X028664Y026577D01*
X028624Y026607D01*
X028587Y026641D01*
X028553Y026677D01*
X028522Y026716D01*
X028494Y026757D01*
X028470Y026800D01*
X028449Y026845D01*
X028431Y026892D01*
X028418Y026939D01*
X028408Y026988D01*
X028402Y027037D01*
X028400Y027087D01*
X028400Y002088D02*
X028402Y002138D01*
X028408Y002187D01*
X028418Y002236D01*
X028431Y002283D01*
X028449Y002330D01*
X028470Y002375D01*
X028494Y002418D01*
X028522Y002459D01*
X028553Y002498D01*
X028587Y002534D01*
X028624Y002568D01*
X028664Y002598D01*
X028705Y002625D01*
X028749Y002649D01*
X028794Y002669D01*
X028841Y002685D01*
X028889Y002698D01*
X028938Y002707D01*
X028988Y002712D01*
X029037Y002713D01*
X029087Y002710D01*
X029136Y002703D01*
X029185Y002692D01*
X029232Y002678D01*
X029278Y002659D01*
X029323Y002637D01*
X029366Y002612D01*
X029406Y002583D01*
X029444Y002551D01*
X029480Y002517D01*
X029513Y002479D01*
X029542Y002439D01*
X029568Y002397D01*
X029591Y002353D01*
X029610Y002307D01*
X029626Y002260D01*
X029638Y002211D01*
X029646Y002162D01*
X029650Y002113D01*
X029650Y002063D01*
X029646Y002014D01*
X029638Y001965D01*
X029626Y001916D01*
X029610Y001869D01*
X029591Y001823D01*
X029568Y001779D01*
X029542Y001737D01*
X029513Y001697D01*
X029480Y001659D01*
X029444Y001625D01*
X029406Y001593D01*
X029366Y001564D01*
X029323Y001539D01*
X029278Y001517D01*
X029232Y001498D01*
X029185Y001484D01*
X029136Y001473D01*
X029087Y001466D01*
X029037Y001463D01*
X028988Y001464D01*
X028938Y001469D01*
X028889Y001478D01*
X028841Y001491D01*
X028794Y001507D01*
X028749Y001527D01*
X028705Y001551D01*
X028664Y001578D01*
X028624Y001608D01*
X028587Y001642D01*
X028553Y001678D01*
X028522Y001717D01*
X028494Y001758D01*
X028470Y001801D01*
X028449Y001846D01*
X028431Y001893D01*
X028418Y001940D01*
X028408Y001989D01*
X028402Y002038D01*
X028400Y002088D01*
X000900Y002087D02*
X000902Y002137D01*
X000908Y002186D01*
X000918Y002235D01*
X000931Y002282D01*
X000949Y002329D01*
X000970Y002374D01*
X000994Y002417D01*
X001022Y002458D01*
X001053Y002497D01*
X001087Y002533D01*
X001124Y002567D01*
X001164Y002597D01*
X001205Y002624D01*
X001249Y002648D01*
X001294Y002668D01*
X001341Y002684D01*
X001389Y002697D01*
X001438Y002706D01*
X001488Y002711D01*
X001537Y002712D01*
X001587Y002709D01*
X001636Y002702D01*
X001685Y002691D01*
X001732Y002677D01*
X001778Y002658D01*
X001823Y002636D01*
X001866Y002611D01*
X001906Y002582D01*
X001944Y002550D01*
X001980Y002516D01*
X002013Y002478D01*
X002042Y002438D01*
X002068Y002396D01*
X002091Y002352D01*
X002110Y002306D01*
X002126Y002259D01*
X002138Y002210D01*
X002146Y002161D01*
X002150Y002112D01*
X002150Y002062D01*
X002146Y002013D01*
X002138Y001964D01*
X002126Y001915D01*
X002110Y001868D01*
X002091Y001822D01*
X002068Y001778D01*
X002042Y001736D01*
X002013Y001696D01*
X001980Y001658D01*
X001944Y001624D01*
X001906Y001592D01*
X001866Y001563D01*
X001823Y001538D01*
X001778Y001516D01*
X001732Y001497D01*
X001685Y001483D01*
X001636Y001472D01*
X001587Y001465D01*
X001537Y001462D01*
X001488Y001463D01*
X001438Y001468D01*
X001389Y001477D01*
X001341Y001490D01*
X001294Y001506D01*
X001249Y001526D01*
X001205Y001550D01*
X001164Y001577D01*
X001124Y001607D01*
X001087Y001641D01*
X001053Y001677D01*
X001022Y001716D01*
X000994Y001757D01*
X000970Y001800D01*
X000949Y001845D01*
X000931Y001892D01*
X000918Y001939D01*
X000908Y001988D01*
X000902Y002037D01*
X000900Y002087D01*
D16*
X030821Y006487D03*
D17*
X034900Y015088D03*
X034900Y020838D03*
X031400Y021613D03*
D18*
X013369Y027525D03*
D19*
X010025Y022181D03*
D20*
X020784Y025674D02*
X020784Y025604D01*
X020783Y025605D02*
X020764Y025602D01*
X020746Y025595D01*
X020730Y025585D01*
X020716Y025572D01*
X020705Y025556D01*
X020697Y025538D01*
X020693Y025520D01*
X020693Y025500D01*
X020697Y025482D01*
X020705Y025464D01*
X020716Y025448D01*
X020730Y025435D01*
X020746Y025425D01*
X020764Y025418D01*
X020783Y025415D01*
X020784Y025346D01*
X020783Y025345D01*
X020759Y025348D01*
X020736Y025354D01*
X020713Y025363D01*
X020693Y025375D01*
X020674Y025391D01*
X020658Y025409D01*
X020644Y025429D01*
X020634Y025451D01*
X020627Y025474D01*
X020623Y025498D01*
X020623Y025522D01*
X020627Y025546D01*
X020634Y025569D01*
X020644Y025591D01*
X020658Y025611D01*
X020674Y025629D01*
X020693Y025645D01*
X020713Y025657D01*
X020736Y025666D01*
X020759Y025672D01*
X020783Y025675D01*
X020783Y025666D01*
X020759Y025663D01*
X020736Y025657D01*
X020714Y025647D01*
X020694Y025634D01*
X020676Y025619D01*
X020661Y025600D01*
X020648Y025579D01*
X020639Y025557D01*
X020634Y025534D01*
X020632Y025510D01*
X020634Y025486D01*
X020639Y025463D01*
X020648Y025441D01*
X020661Y025420D01*
X020676Y025401D01*
X020694Y025386D01*
X020714Y025373D01*
X020736Y025363D01*
X020759Y025357D01*
X020783Y025354D01*
X020783Y025363D01*
X020761Y025366D01*
X020739Y025371D01*
X020718Y025381D01*
X020699Y025393D01*
X020682Y025408D01*
X020668Y025425D01*
X020656Y025445D01*
X020648Y025466D01*
X020643Y025487D01*
X020641Y025510D01*
X020643Y025533D01*
X020648Y025554D01*
X020656Y025575D01*
X020668Y025595D01*
X020682Y025612D01*
X020699Y025627D01*
X020718Y025639D01*
X020739Y025649D01*
X020761Y025654D01*
X020783Y025657D01*
X020783Y025648D01*
X020761Y025645D01*
X020739Y025639D01*
X020719Y025630D01*
X020701Y025617D01*
X020685Y025602D01*
X020671Y025584D01*
X020661Y025564D01*
X020654Y025543D01*
X020650Y025521D01*
X020650Y025499D01*
X020654Y025477D01*
X020661Y025456D01*
X020671Y025436D01*
X020685Y025418D01*
X020701Y025403D01*
X020719Y025390D01*
X020739Y025381D01*
X020761Y025375D01*
X020783Y025372D01*
X020783Y025381D01*
X020761Y025384D01*
X020740Y025390D01*
X020721Y025400D01*
X020703Y025413D01*
X020688Y025429D01*
X020675Y025447D01*
X020666Y025467D01*
X020661Y025488D01*
X020659Y025510D01*
X020661Y025532D01*
X020666Y025553D01*
X020675Y025573D01*
X020688Y025591D01*
X020703Y025607D01*
X020721Y025620D01*
X020740Y025630D01*
X020761Y025636D01*
X020783Y025639D01*
X020783Y025630D01*
X020763Y025627D01*
X020743Y025621D01*
X020725Y025612D01*
X020709Y025600D01*
X020695Y025585D01*
X020683Y025569D01*
X020675Y025550D01*
X020670Y025530D01*
X020668Y025510D01*
X020670Y025490D01*
X020675Y025470D01*
X020683Y025451D01*
X020695Y025435D01*
X020709Y025420D01*
X020725Y025408D01*
X020743Y025399D01*
X020763Y025393D01*
X020783Y025390D01*
X020783Y025399D01*
X020763Y025402D01*
X020744Y025408D01*
X020727Y025417D01*
X020711Y025430D01*
X020698Y025445D01*
X020688Y025462D01*
X020681Y025480D01*
X020677Y025500D01*
X020677Y025520D01*
X020681Y025540D01*
X020688Y025558D01*
X020698Y025575D01*
X020711Y025590D01*
X020727Y025603D01*
X020744Y025612D01*
X020763Y025618D01*
X020783Y025621D01*
X020783Y025612D01*
X020764Y025609D01*
X020746Y025603D01*
X020729Y025593D01*
X020714Y025580D01*
X020702Y025565D01*
X020693Y025548D01*
X020688Y025529D01*
X020686Y025510D01*
X020688Y025491D01*
X020693Y025472D01*
X020702Y025455D01*
X020714Y025440D01*
X020729Y025427D01*
X020746Y025417D01*
X020764Y025411D01*
X020783Y025408D01*
X020792Y025606D02*
X020792Y025676D01*
X020793Y025675D02*
X020812Y025678D01*
X020830Y025685D01*
X020846Y025695D01*
X020860Y025708D01*
X020871Y025724D01*
X020879Y025742D01*
X020883Y025760D01*
X020883Y025780D01*
X020879Y025798D01*
X020871Y025816D01*
X020860Y025832D01*
X020846Y025845D01*
X020830Y025855D01*
X020812Y025862D01*
X020793Y025865D01*
X020792Y025934D01*
X020793Y025935D01*
X020817Y025932D01*
X020840Y025926D01*
X020863Y025917D01*
X020883Y025905D01*
X020902Y025889D01*
X020918Y025871D01*
X020932Y025851D01*
X020942Y025829D01*
X020949Y025806D01*
X020953Y025782D01*
X020953Y025758D01*
X020949Y025734D01*
X020942Y025711D01*
X020932Y025689D01*
X020918Y025669D01*
X020902Y025651D01*
X020883Y025635D01*
X020863Y025623D01*
X020840Y025614D01*
X020817Y025608D01*
X020793Y025605D01*
X020793Y025614D01*
X020817Y025617D01*
X020840Y025623D01*
X020862Y025633D01*
X020882Y025646D01*
X020900Y025661D01*
X020915Y025680D01*
X020928Y025701D01*
X020937Y025723D01*
X020942Y025746D01*
X020944Y025770D01*
X020942Y025794D01*
X020937Y025817D01*
X020928Y025839D01*
X020915Y025860D01*
X020900Y025879D01*
X020882Y025894D01*
X020862Y025907D01*
X020840Y025917D01*
X020817Y025923D01*
X020793Y025926D01*
X020793Y025917D01*
X020815Y025914D01*
X020837Y025909D01*
X020858Y025899D01*
X020877Y025887D01*
X020894Y025872D01*
X020908Y025855D01*
X020920Y025835D01*
X020928Y025814D01*
X020933Y025793D01*
X020935Y025770D01*
X020933Y025747D01*
X020928Y025726D01*
X020920Y025705D01*
X020908Y025685D01*
X020894Y025668D01*
X020877Y025653D01*
X020858Y025641D01*
X020837Y025631D01*
X020815Y025626D01*
X020793Y025623D01*
X020793Y025632D01*
X020815Y025635D01*
X020837Y025641D01*
X020857Y025650D01*
X020875Y025663D01*
X020891Y025678D01*
X020905Y025696D01*
X020915Y025716D01*
X020922Y025737D01*
X020926Y025759D01*
X020926Y025781D01*
X020922Y025803D01*
X020915Y025824D01*
X020905Y025844D01*
X020891Y025862D01*
X020875Y025877D01*
X020857Y025890D01*
X020837Y025899D01*
X020815Y025905D01*
X020793Y025908D01*
X020793Y025899D01*
X020815Y025896D01*
X020836Y025890D01*
X020855Y025880D01*
X020873Y025867D01*
X020888Y025851D01*
X020901Y025833D01*
X020910Y025813D01*
X020915Y025792D01*
X020917Y025770D01*
X020915Y025748D01*
X020910Y025727D01*
X020901Y025707D01*
X020888Y025689D01*
X020873Y025673D01*
X020855Y025660D01*
X020836Y025650D01*
X020815Y025644D01*
X020793Y025641D01*
X020793Y025650D01*
X020813Y025653D01*
X020833Y025659D01*
X020851Y025668D01*
X020867Y025680D01*
X020881Y025695D01*
X020893Y025711D01*
X020901Y025730D01*
X020906Y025750D01*
X020908Y025770D01*
X020906Y025790D01*
X020901Y025810D01*
X020893Y025829D01*
X020881Y025845D01*
X020867Y025860D01*
X020851Y025872D01*
X020833Y025881D01*
X020813Y025887D01*
X020793Y025890D01*
X020793Y025881D01*
X020813Y025878D01*
X020832Y025872D01*
X020849Y025863D01*
X020865Y025850D01*
X020878Y025835D01*
X020888Y025818D01*
X020895Y025800D01*
X020899Y025780D01*
X020899Y025760D01*
X020895Y025740D01*
X020888Y025722D01*
X020878Y025705D01*
X020865Y025690D01*
X020849Y025677D01*
X020832Y025668D01*
X020813Y025662D01*
X020793Y025659D01*
X020793Y025668D01*
X020812Y025671D01*
X020830Y025677D01*
X020847Y025687D01*
X020862Y025700D01*
X020874Y025715D01*
X020883Y025732D01*
X020888Y025751D01*
X020890Y025770D01*
X020888Y025789D01*
X020883Y025808D01*
X020874Y025825D01*
X020862Y025840D01*
X020847Y025853D01*
X020830Y025863D01*
X020812Y025869D01*
X020793Y025872D01*
X020784Y027674D02*
X020784Y027604D01*
X020783Y027605D02*
X020764Y027602D01*
X020746Y027595D01*
X020730Y027585D01*
X020716Y027572D01*
X020705Y027556D01*
X020697Y027538D01*
X020693Y027520D01*
X020693Y027500D01*
X020697Y027482D01*
X020705Y027464D01*
X020716Y027448D01*
X020730Y027435D01*
X020746Y027425D01*
X020764Y027418D01*
X020783Y027415D01*
X020784Y027346D01*
X020783Y027345D01*
X020759Y027348D01*
X020736Y027354D01*
X020713Y027363D01*
X020693Y027375D01*
X020674Y027391D01*
X020658Y027409D01*
X020644Y027429D01*
X020634Y027451D01*
X020627Y027474D01*
X020623Y027498D01*
X020623Y027522D01*
X020627Y027546D01*
X020634Y027569D01*
X020644Y027591D01*
X020658Y027611D01*
X020674Y027629D01*
X020693Y027645D01*
X020713Y027657D01*
X020736Y027666D01*
X020759Y027672D01*
X020783Y027675D01*
X020783Y027666D01*
X020759Y027663D01*
X020736Y027657D01*
X020714Y027647D01*
X020694Y027634D01*
X020676Y027619D01*
X020661Y027600D01*
X020648Y027579D01*
X020639Y027557D01*
X020634Y027534D01*
X020632Y027510D01*
X020634Y027486D01*
X020639Y027463D01*
X020648Y027441D01*
X020661Y027420D01*
X020676Y027401D01*
X020694Y027386D01*
X020714Y027373D01*
X020736Y027363D01*
X020759Y027357D01*
X020783Y027354D01*
X020783Y027363D01*
X020761Y027366D01*
X020739Y027371D01*
X020718Y027381D01*
X020699Y027393D01*
X020682Y027408D01*
X020668Y027425D01*
X020656Y027445D01*
X020648Y027466D01*
X020643Y027487D01*
X020641Y027510D01*
X020643Y027533D01*
X020648Y027554D01*
X020656Y027575D01*
X020668Y027595D01*
X020682Y027612D01*
X020699Y027627D01*
X020718Y027639D01*
X020739Y027649D01*
X020761Y027654D01*
X020783Y027657D01*
X020783Y027648D01*
X020761Y027645D01*
X020739Y027639D01*
X020719Y027630D01*
X020701Y027617D01*
X020685Y027602D01*
X020671Y027584D01*
X020661Y027564D01*
X020654Y027543D01*
X020650Y027521D01*
X020650Y027499D01*
X020654Y027477D01*
X020661Y027456D01*
X020671Y027436D01*
X020685Y027418D01*
X020701Y027403D01*
X020719Y027390D01*
X020739Y027381D01*
X020761Y027375D01*
X020783Y027372D01*
X020783Y027381D01*
X020761Y027384D01*
X020740Y027390D01*
X020721Y027400D01*
X020703Y027413D01*
X020688Y027429D01*
X020675Y027447D01*
X020666Y027467D01*
X020661Y027488D01*
X020659Y027510D01*
X020661Y027532D01*
X020666Y027553D01*
X020675Y027573D01*
X020688Y027591D01*
X020703Y027607D01*
X020721Y027620D01*
X020740Y027630D01*
X020761Y027636D01*
X020783Y027639D01*
X020783Y027630D01*
X020763Y027627D01*
X020743Y027621D01*
X020725Y027612D01*
X020709Y027600D01*
X020695Y027585D01*
X020683Y027569D01*
X020675Y027550D01*
X020670Y027530D01*
X020668Y027510D01*
X020670Y027490D01*
X020675Y027470D01*
X020683Y027451D01*
X020695Y027435D01*
X020709Y027420D01*
X020725Y027408D01*
X020743Y027399D01*
X020763Y027393D01*
X020783Y027390D01*
X020783Y027399D01*
X020763Y027402D01*
X020744Y027408D01*
X020727Y027417D01*
X020711Y027430D01*
X020698Y027445D01*
X020688Y027462D01*
X020681Y027480D01*
X020677Y027500D01*
X020677Y027520D01*
X020681Y027540D01*
X020688Y027558D01*
X020698Y027575D01*
X020711Y027590D01*
X020727Y027603D01*
X020744Y027612D01*
X020763Y027618D01*
X020783Y027621D01*
X020783Y027612D01*
X020764Y027609D01*
X020746Y027603D01*
X020729Y027593D01*
X020714Y027580D01*
X020702Y027565D01*
X020693Y027548D01*
X020688Y027529D01*
X020686Y027510D01*
X020688Y027491D01*
X020693Y027472D01*
X020702Y027455D01*
X020714Y027440D01*
X020729Y027427D01*
X020746Y027417D01*
X020764Y027411D01*
X020783Y027408D01*
X020792Y027606D02*
X020792Y027676D01*
X020793Y027675D02*
X020812Y027678D01*
X020830Y027685D01*
X020846Y027695D01*
X020860Y027708D01*
X020871Y027724D01*
X020879Y027742D01*
X020883Y027760D01*
X020883Y027780D01*
X020879Y027798D01*
X020871Y027816D01*
X020860Y027832D01*
X020846Y027845D01*
X020830Y027855D01*
X020812Y027862D01*
X020793Y027865D01*
X020792Y027934D01*
X020793Y027935D01*
X020817Y027932D01*
X020840Y027926D01*
X020863Y027917D01*
X020883Y027905D01*
X020902Y027889D01*
X020918Y027871D01*
X020932Y027851D01*
X020942Y027829D01*
X020949Y027806D01*
X020953Y027782D01*
X020953Y027758D01*
X020949Y027734D01*
X020942Y027711D01*
X020932Y027689D01*
X020918Y027669D01*
X020902Y027651D01*
X020883Y027635D01*
X020863Y027623D01*
X020840Y027614D01*
X020817Y027608D01*
X020793Y027605D01*
X020793Y027614D01*
X020817Y027617D01*
X020840Y027623D01*
X020862Y027633D01*
X020882Y027646D01*
X020900Y027661D01*
X020915Y027680D01*
X020928Y027701D01*
X020937Y027723D01*
X020942Y027746D01*
X020944Y027770D01*
X020942Y027794D01*
X020937Y027817D01*
X020928Y027839D01*
X020915Y027860D01*
X020900Y027879D01*
X020882Y027894D01*
X020862Y027907D01*
X020840Y027917D01*
X020817Y027923D01*
X020793Y027926D01*
X020793Y027917D01*
X020815Y027914D01*
X020837Y027909D01*
X020858Y027899D01*
X020877Y027887D01*
X020894Y027872D01*
X020908Y027855D01*
X020920Y027835D01*
X020928Y027814D01*
X020933Y027793D01*
X020935Y027770D01*
X020933Y027747D01*
X020928Y027726D01*
X020920Y027705D01*
X020908Y027685D01*
X020894Y027668D01*
X020877Y027653D01*
X020858Y027641D01*
X020837Y027631D01*
X020815Y027626D01*
X020793Y027623D01*
X020793Y027632D01*
X020815Y027635D01*
X020837Y027641D01*
X020857Y027650D01*
X020875Y027663D01*
X020891Y027678D01*
X020905Y027696D01*
X020915Y027716D01*
X020922Y027737D01*
X020926Y027759D01*
X020926Y027781D01*
X020922Y027803D01*
X020915Y027824D01*
X020905Y027844D01*
X020891Y027862D01*
X020875Y027877D01*
X020857Y027890D01*
X020837Y027899D01*
X020815Y027905D01*
X020793Y027908D01*
X020793Y027899D01*
X020815Y027896D01*
X020836Y027890D01*
X020855Y027880D01*
X020873Y027867D01*
X020888Y027851D01*
X020901Y027833D01*
X020910Y027813D01*
X020915Y027792D01*
X020917Y027770D01*
X020915Y027748D01*
X020910Y027727D01*
X020901Y027707D01*
X020888Y027689D01*
X020873Y027673D01*
X020855Y027660D01*
X020836Y027650D01*
X020815Y027644D01*
X020793Y027641D01*
X020793Y027650D01*
X020813Y027653D01*
X020833Y027659D01*
X020851Y027668D01*
X020867Y027680D01*
X020881Y027695D01*
X020893Y027711D01*
X020901Y027730D01*
X020906Y027750D01*
X020908Y027770D01*
X020906Y027790D01*
X020901Y027810D01*
X020893Y027829D01*
X020881Y027845D01*
X020867Y027860D01*
X020851Y027872D01*
X020833Y027881D01*
X020813Y027887D01*
X020793Y027890D01*
X020793Y027881D01*
X020813Y027878D01*
X020832Y027872D01*
X020849Y027863D01*
X020865Y027850D01*
X020878Y027835D01*
X020888Y027818D01*
X020895Y027800D01*
X020899Y027780D01*
X020899Y027760D01*
X020895Y027740D01*
X020888Y027722D01*
X020878Y027705D01*
X020865Y027690D01*
X020849Y027677D01*
X020832Y027668D01*
X020813Y027662D01*
X020793Y027659D01*
X020793Y027668D01*
X020812Y027671D01*
X020830Y027677D01*
X020847Y027687D01*
X020862Y027700D01*
X020874Y027715D01*
X020883Y027732D01*
X020888Y027751D01*
X020890Y027770D01*
X020888Y027789D01*
X020883Y027808D01*
X020874Y027825D01*
X020862Y027840D01*
X020847Y027853D01*
X020830Y027863D01*
X020812Y027869D01*
X020793Y027872D01*
D21*
X020025Y028195D03*
D22*
X011025Y001650D03*
X006525Y001650D03*
D23*
X008775Y001650D03*
D24*
X036525Y010025D02*
X037275Y010025D01*
X037275Y009713D01*
X037962Y010150D01*
X037275Y010587D01*
X037275Y010275D01*
X036525Y010275D01*
X036525Y010025D01*
X036587Y010087D02*
X037338Y010087D01*
X037338Y009900D01*
X037775Y010150D01*
X037338Y010400D01*
X037838Y010150D01*
X037338Y010463D01*
X037338Y010213D01*
X036587Y010213D01*
X036587Y010087D01*
X036587Y010136D02*
X037750Y010136D01*
X037607Y010294D02*
X037549Y010294D01*
X037523Y010294D02*
X037338Y010294D01*
X037338Y010453D02*
X037354Y010453D01*
X037338Y009977D02*
X037472Y009977D01*
D25*
X000804Y005650D02*
X000806Y005723D01*
X000812Y005796D01*
X000822Y005868D01*
X000835Y005939D01*
X000853Y006010D01*
X000874Y006080D01*
X000900Y006148D01*
X000928Y006215D01*
X000961Y006280D01*
X000997Y006344D01*
X001036Y006405D01*
X001078Y006465D01*
X001124Y006521D01*
X001173Y006576D01*
X001224Y006627D01*
X001279Y006676D01*
X001335Y006722D01*
X001395Y006764D01*
X001456Y006803D01*
X001520Y006839D01*
X001585Y006872D01*
X001652Y006900D01*
X001720Y006926D01*
X001790Y006947D01*
X001861Y006965D01*
X001932Y006978D01*
X002004Y006988D01*
X002077Y006994D01*
X002150Y006996D01*
X002223Y006994D01*
X002296Y006988D01*
X002368Y006978D01*
X002439Y006965D01*
X002510Y006947D01*
X002580Y006926D01*
X002648Y006900D01*
X002715Y006872D01*
X002780Y006839D01*
X002844Y006803D01*
X002905Y006764D01*
X002965Y006722D01*
X003021Y006676D01*
X003076Y006627D01*
X003127Y006576D01*
X003176Y006521D01*
X003222Y006465D01*
X003264Y006405D01*
X003303Y006344D01*
X003339Y006280D01*
X003372Y006215D01*
X003400Y006148D01*
X003426Y006080D01*
X003447Y006010D01*
X003465Y005939D01*
X003478Y005868D01*
X003488Y005796D01*
X003494Y005723D01*
X003496Y005650D01*
X003494Y005577D01*
X003488Y005504D01*
X003478Y005432D01*
X003465Y005361D01*
X003447Y005290D01*
X003426Y005220D01*
X003400Y005152D01*
X003372Y005085D01*
X003339Y005020D01*
X003303Y004956D01*
X003264Y004895D01*
X003222Y004835D01*
X003176Y004779D01*
X003127Y004724D01*
X003076Y004673D01*
X003021Y004624D01*
X002965Y004578D01*
X002905Y004536D01*
X002844Y004497D01*
X002780Y004461D01*
X002715Y004428D01*
X002648Y004400D01*
X002580Y004374D01*
X002510Y004353D01*
X002439Y004335D01*
X002368Y004322D01*
X002296Y004312D01*
X002223Y004306D01*
X002150Y004304D01*
X002077Y004306D01*
X002004Y004312D01*
X001932Y004322D01*
X001861Y004335D01*
X001790Y004353D01*
X001720Y004374D01*
X001652Y004400D01*
X001585Y004428D01*
X001520Y004461D01*
X001456Y004497D01*
X001395Y004536D01*
X001335Y004578D01*
X001279Y004624D01*
X001224Y004673D01*
X001173Y004724D01*
X001124Y004779D01*
X001078Y004835D01*
X001036Y004895D01*
X000997Y004956D01*
X000961Y005020D01*
X000928Y005085D01*
X000900Y005152D01*
X000874Y005220D01*
X000853Y005290D01*
X000835Y005361D01*
X000822Y005432D01*
X000812Y005504D01*
X000806Y005577D01*
X000804Y005650D01*
D26*
X001549Y005838D02*
X001549Y005237D01*
X002750Y005237D01*
X002750Y005838D01*
X002550Y006038D01*
X002350Y006038D01*
X002149Y005838D01*
X002149Y005237D01*
X002149Y005838D02*
X001949Y006038D01*
X001749Y006038D01*
X001549Y005838D01*
M02*
