G75*
G70*
%OFA0B0*%
%FSLAX24Y24*%
%IPPOS*%
%LPD*%
%AMOC8*
5,1,8,0,0,1.08239X$1,22.5*
%
%ADD10C,0.2404*%
%ADD11C,0.1330*%
%ADD12C,0.0273*%
%ADD13C,0.0218*%
%ADD14R,0.0680X0.0680*%
%ADD15OC8,0.0680*%
%ADD16R,0.0740X0.0740*%
%ADD17OC8,0.0740*%
%ADD18C,0.0232*%
%ADD19C,0.0253*%
%ADD20C,0.0235*%
%ADD21C,0.0218*%
%ADD22C,0.0215*%
%ADD23C,0.0242*%
%ADD24C,0.0217*%
%ADD25R,0.1080X0.1080*%
%ADD26OC8,0.1080*%
%ADD27C,0.0710*%
%ADD28OC8,0.0710*%
%ADD29C,0.0740*%
%ADD30OC8,0.0780*%
%ADD31C,0.0780*%
%ADD32C,0.0277*%
%ADD33C,0.0222*%
%ADD34C,0.2080*%
%ADD35C,0.0269*%
%ADD36C,0.0225*%
%ADD37C,0.0228*%
%ADD38C,0.0812*%
%ADD39R,0.0640X0.0640*%
%ADD40OC8,0.0640*%
%ADD41C,0.0840*%
%ADD42R,0.1250X0.1250*%
D10*
X001525Y002088D03*
X029025Y002088D03*
X029025Y027088D03*
X001525Y027088D03*
D11*
X001525Y002087D03*
X029025Y002088D03*
X029025Y027087D03*
X001525Y027087D03*
D12*
X025287Y011188D02*
X025565Y011188D01*
X025565Y011160D01*
X025287Y011160D01*
X025287Y011188D01*
X025287Y010873D02*
X025565Y010873D01*
X025565Y010845D01*
X025287Y010845D01*
X025287Y010873D01*
X025287Y010558D02*
X025565Y010558D01*
X025565Y010530D01*
X025287Y010530D01*
X025287Y010558D01*
X025287Y010243D02*
X025565Y010243D01*
X025565Y010215D01*
X025287Y010215D01*
X025287Y010243D01*
X025287Y009928D02*
X025565Y009928D01*
X025565Y009900D01*
X025287Y009900D01*
X025287Y009928D01*
X025287Y009613D02*
X025565Y009613D01*
X025565Y009585D01*
X025287Y009585D01*
X025287Y009613D01*
X025287Y009298D02*
X025565Y009298D01*
X025565Y009270D01*
X025287Y009270D01*
X025287Y009298D01*
X025287Y008983D02*
X025565Y008983D01*
X025565Y008955D01*
X025287Y008955D01*
X025287Y008983D01*
X025287Y008668D02*
X025565Y008668D01*
X025565Y008640D01*
X025287Y008640D01*
X025287Y008668D01*
X025287Y008353D02*
X025565Y008353D01*
X025565Y008325D01*
X025287Y008325D01*
X025287Y008353D01*
X025287Y008038D02*
X025565Y008038D01*
X025565Y008010D01*
X025287Y008010D01*
X025287Y008038D01*
X025287Y007723D02*
X025565Y007723D01*
X025565Y007695D01*
X025287Y007695D01*
X025287Y007723D01*
X025287Y007408D02*
X025565Y007408D01*
X025565Y007380D01*
X025287Y007380D01*
X025287Y007408D01*
X025287Y007093D02*
X025565Y007093D01*
X025565Y007065D01*
X025287Y007065D01*
X025287Y007093D01*
X025287Y006778D02*
X025565Y006778D01*
X025565Y006750D01*
X025287Y006750D01*
X025287Y006778D01*
X025287Y006463D02*
X025565Y006463D01*
X025565Y006435D01*
X025287Y006435D01*
X025287Y006463D01*
X026120Y005880D02*
X026148Y005880D01*
X026148Y005602D01*
X026120Y005602D01*
X026120Y005880D01*
X026120Y005874D02*
X026148Y005874D01*
X026435Y005880D02*
X026463Y005880D01*
X026463Y005602D01*
X026435Y005602D01*
X026435Y005880D01*
X026435Y005874D02*
X026463Y005874D01*
X026750Y005880D02*
X026778Y005880D01*
X026778Y005602D01*
X026750Y005602D01*
X026750Y005880D01*
X026750Y005874D02*
X026778Y005874D01*
X027065Y005880D02*
X027093Y005880D01*
X027093Y005602D01*
X027065Y005602D01*
X027065Y005880D01*
X027065Y005874D02*
X027093Y005874D01*
X027380Y005880D02*
X027408Y005880D01*
X027408Y005602D01*
X027380Y005602D01*
X027380Y005880D01*
X027380Y005874D02*
X027408Y005874D01*
X027695Y005880D02*
X027723Y005880D01*
X027723Y005602D01*
X027695Y005602D01*
X027695Y005880D01*
X027695Y005874D02*
X027723Y005874D01*
X028010Y005880D02*
X028038Y005880D01*
X028038Y005602D01*
X028010Y005602D01*
X028010Y005880D01*
X028010Y005874D02*
X028038Y005874D01*
X028325Y005880D02*
X028353Y005880D01*
X028353Y005602D01*
X028325Y005602D01*
X028325Y005880D01*
X028325Y005874D02*
X028353Y005874D01*
X028640Y005880D02*
X028668Y005880D01*
X028668Y005602D01*
X028640Y005602D01*
X028640Y005880D01*
X028640Y005874D02*
X028668Y005874D01*
X028955Y005880D02*
X028983Y005880D01*
X028983Y005602D01*
X028955Y005602D01*
X028955Y005880D01*
X028955Y005874D02*
X028983Y005874D01*
X029270Y005880D02*
X029298Y005880D01*
X029298Y005602D01*
X029270Y005602D01*
X029270Y005880D01*
X029270Y005874D02*
X029298Y005874D01*
X029585Y005880D02*
X029613Y005880D01*
X029613Y005602D01*
X029585Y005602D01*
X029585Y005880D01*
X029585Y005874D02*
X029613Y005874D01*
X029900Y005880D02*
X029928Y005880D01*
X029928Y005602D01*
X029900Y005602D01*
X029900Y005880D01*
X029900Y005874D02*
X029928Y005874D01*
X030215Y005880D02*
X030243Y005880D01*
X030243Y005602D01*
X030215Y005602D01*
X030215Y005880D01*
X030215Y005874D02*
X030243Y005874D01*
X030530Y005880D02*
X030558Y005880D01*
X030558Y005602D01*
X030530Y005602D01*
X030530Y005880D01*
X030530Y005874D02*
X030558Y005874D01*
X030845Y005880D02*
X030873Y005880D01*
X030873Y005602D01*
X030845Y005602D01*
X030845Y005880D01*
X030845Y005874D02*
X030873Y005874D01*
X031428Y006463D02*
X031706Y006463D01*
X031706Y006435D01*
X031428Y006435D01*
X031428Y006463D01*
X031428Y006778D02*
X031706Y006778D01*
X031706Y006750D01*
X031428Y006750D01*
X031428Y006778D01*
X031428Y007093D02*
X031706Y007093D01*
X031706Y007065D01*
X031428Y007065D01*
X031428Y007093D01*
X031428Y007408D02*
X031706Y007408D01*
X031706Y007380D01*
X031428Y007380D01*
X031428Y007408D01*
X031428Y007723D02*
X031706Y007723D01*
X031706Y007695D01*
X031428Y007695D01*
X031428Y007723D01*
X031428Y008038D02*
X031706Y008038D01*
X031706Y008010D01*
X031428Y008010D01*
X031428Y008038D01*
X031428Y008353D02*
X031706Y008353D01*
X031706Y008325D01*
X031428Y008325D01*
X031428Y008353D01*
X031428Y008668D02*
X031706Y008668D01*
X031706Y008640D01*
X031428Y008640D01*
X031428Y008668D01*
X031428Y008983D02*
X031706Y008983D01*
X031706Y008955D01*
X031428Y008955D01*
X031428Y008983D01*
X031428Y009298D02*
X031706Y009298D01*
X031706Y009270D01*
X031428Y009270D01*
X031428Y009298D01*
X031428Y009613D02*
X031706Y009613D01*
X031706Y009585D01*
X031428Y009585D01*
X031428Y009613D01*
X031428Y009928D02*
X031706Y009928D01*
X031706Y009900D01*
X031428Y009900D01*
X031428Y009928D01*
X031428Y010243D02*
X031706Y010243D01*
X031706Y010215D01*
X031428Y010215D01*
X031428Y010243D01*
X031428Y010558D02*
X031706Y010558D01*
X031706Y010530D01*
X031428Y010530D01*
X031428Y010558D01*
X031428Y010873D02*
X031706Y010873D01*
X031706Y010845D01*
X031428Y010845D01*
X031428Y010873D01*
X031428Y011188D02*
X031706Y011188D01*
X031706Y011160D01*
X031428Y011160D01*
X031428Y011188D01*
X030873Y012021D02*
X030845Y012021D01*
X030873Y012021D02*
X030873Y011743D01*
X030845Y011743D01*
X030845Y012021D01*
X030845Y012015D02*
X030873Y012015D01*
X030558Y012021D02*
X030530Y012021D01*
X030558Y012021D02*
X030558Y011743D01*
X030530Y011743D01*
X030530Y012021D01*
X030530Y012015D02*
X030558Y012015D01*
X030243Y012021D02*
X030215Y012021D01*
X030243Y012021D02*
X030243Y011743D01*
X030215Y011743D01*
X030215Y012021D01*
X030215Y012015D02*
X030243Y012015D01*
X029928Y012021D02*
X029900Y012021D01*
X029928Y012021D02*
X029928Y011743D01*
X029900Y011743D01*
X029900Y012021D01*
X029900Y012015D02*
X029928Y012015D01*
X029613Y012021D02*
X029585Y012021D01*
X029613Y012021D02*
X029613Y011743D01*
X029585Y011743D01*
X029585Y012021D01*
X029585Y012015D02*
X029613Y012015D01*
X029298Y012021D02*
X029270Y012021D01*
X029298Y012021D02*
X029298Y011743D01*
X029270Y011743D01*
X029270Y012021D01*
X029270Y012015D02*
X029298Y012015D01*
X028983Y012021D02*
X028955Y012021D01*
X028983Y012021D02*
X028983Y011743D01*
X028955Y011743D01*
X028955Y012021D01*
X028955Y012015D02*
X028983Y012015D01*
X028668Y012021D02*
X028640Y012021D01*
X028668Y012021D02*
X028668Y011743D01*
X028640Y011743D01*
X028640Y012021D01*
X028640Y012015D02*
X028668Y012015D01*
X028353Y012021D02*
X028325Y012021D01*
X028353Y012021D02*
X028353Y011743D01*
X028325Y011743D01*
X028325Y012021D01*
X028325Y012015D02*
X028353Y012015D01*
X028038Y012021D02*
X028010Y012021D01*
X028038Y012021D02*
X028038Y011743D01*
X028010Y011743D01*
X028010Y012021D01*
X028010Y012015D02*
X028038Y012015D01*
X027723Y012021D02*
X027695Y012021D01*
X027723Y012021D02*
X027723Y011743D01*
X027695Y011743D01*
X027695Y012021D01*
X027695Y012015D02*
X027723Y012015D01*
X027408Y012021D02*
X027380Y012021D01*
X027408Y012021D02*
X027408Y011743D01*
X027380Y011743D01*
X027380Y012021D01*
X027380Y012015D02*
X027408Y012015D01*
X027093Y012021D02*
X027065Y012021D01*
X027093Y012021D02*
X027093Y011743D01*
X027065Y011743D01*
X027065Y012021D01*
X027065Y012015D02*
X027093Y012015D01*
X026778Y012021D02*
X026750Y012021D01*
X026778Y012021D02*
X026778Y011743D01*
X026750Y011743D01*
X026750Y012021D01*
X026750Y012015D02*
X026778Y012015D01*
X026463Y012021D02*
X026435Y012021D01*
X026463Y012021D02*
X026463Y011743D01*
X026435Y011743D01*
X026435Y012021D01*
X026435Y012015D02*
X026463Y012015D01*
X026148Y012021D02*
X026120Y012021D01*
X026148Y012021D02*
X026148Y011743D01*
X026120Y011743D01*
X026120Y012021D01*
X026120Y012015D02*
X026148Y012015D01*
D13*
X026294Y014839D02*
X028256Y014839D01*
X026294Y014839D02*
X026294Y015461D01*
X028256Y015461D01*
X028256Y014839D01*
X028256Y015056D02*
X026294Y015056D01*
X026294Y015273D02*
X028256Y015273D01*
X030044Y014839D02*
X032006Y014839D01*
X030044Y014839D02*
X030044Y015461D01*
X032006Y015461D01*
X032006Y014839D01*
X032006Y015056D02*
X030044Y015056D01*
X030044Y015273D02*
X032006Y015273D01*
D14*
X034900Y018275D03*
D15*
X033900Y018275D03*
X032900Y018275D03*
X032900Y017275D03*
X033900Y017275D03*
X034900Y017275D03*
D16*
X015650Y005150D03*
D17*
X016650Y005150D03*
X017650Y005150D03*
X018650Y005150D03*
X019650Y005150D03*
X019650Y006150D03*
X018650Y006150D03*
X017650Y006150D03*
X016650Y006150D03*
X015650Y006150D03*
D18*
X011185Y005845D02*
X010865Y005845D01*
X010865Y006205D01*
X011185Y006205D01*
X011185Y005845D01*
X011185Y006076D02*
X010865Y006076D01*
X010435Y005845D02*
X010115Y005845D01*
X010115Y006205D01*
X010435Y006205D01*
X010435Y005845D01*
X010435Y006076D02*
X010115Y006076D01*
X010115Y004970D02*
X010435Y004970D01*
X010115Y004970D02*
X010115Y005330D01*
X010435Y005330D01*
X010435Y004970D01*
X010435Y005201D02*
X010115Y005201D01*
X010865Y004970D02*
X011185Y004970D01*
X010865Y004970D02*
X010865Y005330D01*
X011185Y005330D01*
X011185Y004970D01*
X011185Y005201D02*
X010865Y005201D01*
X009104Y005408D02*
X009104Y004892D01*
X008784Y004892D01*
X008784Y005408D01*
X009104Y005408D01*
X009104Y005123D02*
X008784Y005123D01*
X008784Y005354D02*
X009104Y005354D01*
X007766Y005408D02*
X007766Y004892D01*
X007446Y004892D01*
X007446Y005408D01*
X007766Y005408D01*
X007766Y005123D02*
X007446Y005123D01*
X007446Y005354D02*
X007766Y005354D01*
X007766Y006767D02*
X007766Y007283D01*
X007766Y006767D02*
X007446Y006767D01*
X007446Y007283D01*
X007766Y007283D01*
X007766Y006998D02*
X007446Y006998D01*
X007446Y007229D02*
X007766Y007229D01*
X009104Y007283D02*
X009104Y006767D01*
X008784Y006767D01*
X008784Y007283D01*
X009104Y007283D01*
X009104Y006998D02*
X008784Y006998D01*
X008784Y007229D02*
X009104Y007229D01*
X010115Y006845D02*
X010435Y006845D01*
X010115Y006845D02*
X010115Y007205D01*
X010435Y007205D01*
X010435Y006845D01*
X010435Y007076D02*
X010115Y007076D01*
X010115Y007720D02*
X010435Y007720D01*
X010115Y007720D02*
X010115Y008080D01*
X010435Y008080D01*
X010435Y007720D01*
X010435Y007951D02*
X010115Y007951D01*
X010865Y007720D02*
X011185Y007720D01*
X010865Y007720D02*
X010865Y008080D01*
X011185Y008080D01*
X011185Y007720D01*
X011185Y007951D02*
X010865Y007951D01*
X010865Y006845D02*
X011185Y006845D01*
X010865Y006845D02*
X010865Y007205D01*
X011185Y007205D01*
X011185Y006845D01*
X011185Y007076D02*
X010865Y007076D01*
X005060Y017970D02*
X004740Y017970D01*
X004740Y018330D01*
X005060Y018330D01*
X005060Y017970D01*
X005060Y018201D02*
X004740Y018201D01*
X004310Y017970D02*
X003990Y017970D01*
X003990Y018330D01*
X004310Y018330D01*
X004310Y017970D01*
X004310Y018201D02*
X003990Y018201D01*
X006220Y020065D02*
X006220Y020385D01*
X006580Y020385D01*
X006580Y020065D01*
X006220Y020065D01*
X006220Y020296D02*
X006580Y020296D01*
X006220Y020815D02*
X006220Y021135D01*
X006580Y021135D01*
X006580Y020815D01*
X006220Y020815D01*
X006220Y021046D02*
X006580Y021046D01*
X008330Y019435D02*
X008330Y019115D01*
X007970Y019115D01*
X007970Y019435D01*
X008330Y019435D01*
X008330Y019346D02*
X007970Y019346D01*
X008330Y018685D02*
X008330Y018365D01*
X007970Y018365D01*
X007970Y018685D01*
X008330Y018685D01*
X008330Y018596D02*
X007970Y018596D01*
X009970Y018685D02*
X009970Y018365D01*
X009970Y018685D02*
X010330Y018685D01*
X010330Y018365D01*
X009970Y018365D01*
X009970Y018596D02*
X010330Y018596D01*
X009970Y019115D02*
X009970Y019435D01*
X010330Y019435D01*
X010330Y019115D01*
X009970Y019115D01*
X009970Y019346D02*
X010330Y019346D01*
X011470Y020615D02*
X011470Y020935D01*
X011830Y020935D01*
X011830Y020615D01*
X011470Y020615D01*
X011470Y020846D02*
X011830Y020846D01*
X011470Y021365D02*
X011470Y021685D01*
X011830Y021685D01*
X011830Y021365D01*
X011470Y021365D01*
X011470Y021596D02*
X011830Y021596D01*
X013330Y022240D02*
X013330Y022560D01*
X013330Y022240D02*
X012970Y022240D01*
X012970Y022560D01*
X013330Y022560D01*
X013330Y022471D02*
X012970Y022471D01*
X013330Y022990D02*
X013330Y023310D01*
X013330Y022990D02*
X012970Y022990D01*
X012970Y023310D01*
X013330Y023310D01*
X013330Y023221D02*
X012970Y023221D01*
X013970Y023310D02*
X013970Y022990D01*
X013970Y023310D02*
X014330Y023310D01*
X014330Y022990D01*
X013970Y022990D01*
X013970Y023221D02*
X014330Y023221D01*
X013970Y022560D02*
X013970Y022240D01*
X013970Y022560D02*
X014330Y022560D01*
X014330Y022240D01*
X013970Y022240D01*
X013970Y022471D02*
X014330Y022471D01*
X013060Y025720D02*
X012740Y025720D01*
X012740Y026080D01*
X013060Y026080D01*
X013060Y025720D01*
X013060Y025951D02*
X012740Y025951D01*
X012310Y025720D02*
X011990Y025720D01*
X011990Y026080D01*
X012310Y026080D01*
X012310Y025720D01*
X012310Y025951D02*
X011990Y025951D01*
X019970Y024185D02*
X019970Y023865D01*
X019970Y024185D02*
X020330Y024185D01*
X020330Y023865D01*
X019970Y023865D01*
X019970Y024096D02*
X020330Y024096D01*
X019970Y023435D02*
X019970Y023115D01*
X019970Y023435D02*
X020330Y023435D01*
X020330Y023115D01*
X019970Y023115D01*
X019970Y023346D02*
X020330Y023346D01*
X025115Y022205D02*
X025435Y022205D01*
X025435Y021845D01*
X025115Y021845D01*
X025115Y022205D01*
X025115Y022076D02*
X025435Y022076D01*
X025865Y022205D02*
X026185Y022205D01*
X026185Y021845D01*
X025865Y021845D01*
X025865Y022205D01*
X025865Y022076D02*
X026185Y022076D01*
X026185Y021455D02*
X025865Y021455D01*
X026185Y021455D02*
X026185Y021095D01*
X025865Y021095D01*
X025865Y021455D01*
X025865Y021326D02*
X026185Y021326D01*
X025435Y021455D02*
X025115Y021455D01*
X025435Y021455D02*
X025435Y021095D01*
X025115Y021095D01*
X025115Y021455D01*
X025115Y021326D02*
X025435Y021326D01*
X021845Y019435D02*
X021845Y019115D01*
X021845Y019435D02*
X022205Y019435D01*
X022205Y019115D01*
X021845Y019115D01*
X021845Y019346D02*
X022205Y019346D01*
X021845Y018685D02*
X021845Y018365D01*
X021845Y018685D02*
X022205Y018685D01*
X022205Y018365D01*
X021845Y018365D01*
X021845Y018596D02*
X022205Y018596D01*
X019970Y018685D02*
X019970Y018365D01*
X019970Y018685D02*
X020330Y018685D01*
X020330Y018365D01*
X019970Y018365D01*
X019970Y018596D02*
X020330Y018596D01*
X019970Y019115D02*
X019970Y019435D01*
X020330Y019435D01*
X020330Y019115D01*
X019970Y019115D01*
X019970Y019346D02*
X020330Y019346D01*
X027115Y016955D02*
X027435Y016955D01*
X027435Y016595D01*
X027115Y016595D01*
X027115Y016955D01*
X027115Y016826D02*
X027435Y016826D01*
X027865Y016955D02*
X028185Y016955D01*
X028185Y016595D01*
X027865Y016595D01*
X027865Y016955D01*
X027865Y016826D02*
X028185Y016826D01*
X030115Y016595D02*
X030435Y016595D01*
X030115Y016595D02*
X030115Y016955D01*
X030435Y016955D01*
X030435Y016595D01*
X030435Y016826D02*
X030115Y016826D01*
X030865Y016595D02*
X031185Y016595D01*
X030865Y016595D02*
X030865Y016955D01*
X031185Y016955D01*
X031185Y016595D01*
X031185Y016826D02*
X030865Y016826D01*
X030220Y023865D02*
X030220Y024185D01*
X030580Y024185D01*
X030580Y023865D01*
X030220Y023865D01*
X030220Y024096D02*
X030580Y024096D01*
X031220Y024185D02*
X031220Y023865D01*
X031220Y024185D02*
X031580Y024185D01*
X031580Y023865D01*
X031220Y023865D01*
X031220Y024096D02*
X031580Y024096D01*
X032580Y024185D02*
X032580Y023865D01*
X032220Y023865D01*
X032220Y024185D01*
X032580Y024185D01*
X032580Y024096D02*
X032220Y024096D01*
X032580Y024615D02*
X032580Y024935D01*
X032580Y024615D02*
X032220Y024615D01*
X032220Y024935D01*
X032580Y024935D01*
X032580Y024846D02*
X032220Y024846D01*
X031220Y024935D02*
X031220Y024615D01*
X031220Y024935D02*
X031580Y024935D01*
X031580Y024615D01*
X031220Y024615D01*
X031220Y024846D02*
X031580Y024846D01*
X030220Y024935D02*
X030220Y024615D01*
X030220Y024935D02*
X030580Y024935D01*
X030580Y024615D01*
X030220Y024615D01*
X030220Y024846D02*
X030580Y024846D01*
X029220Y024935D02*
X029220Y024615D01*
X029220Y024935D02*
X029580Y024935D01*
X029580Y024615D01*
X029220Y024615D01*
X029220Y024846D02*
X029580Y024846D01*
X028220Y024935D02*
X028220Y024615D01*
X028220Y024935D02*
X028580Y024935D01*
X028580Y024615D01*
X028220Y024615D01*
X028220Y024846D02*
X028580Y024846D01*
X028220Y024185D02*
X028220Y023865D01*
X028220Y024185D02*
X028580Y024185D01*
X028580Y023865D01*
X028220Y023865D01*
X028220Y024096D02*
X028580Y024096D01*
X029220Y024185D02*
X029220Y023865D01*
X029220Y024185D02*
X029580Y024185D01*
X029580Y023865D01*
X029220Y023865D01*
X029220Y024096D02*
X029580Y024096D01*
X036740Y008018D02*
X037060Y008018D01*
X037060Y007658D01*
X036740Y007658D01*
X036740Y008018D01*
X036740Y007889D02*
X037060Y007889D01*
X037490Y008018D02*
X037810Y008018D01*
X037810Y007658D01*
X037490Y007658D01*
X037490Y008018D01*
X037490Y007889D02*
X037810Y007889D01*
X037810Y007330D02*
X037490Y007330D01*
X037810Y007330D02*
X037810Y006970D01*
X037490Y006970D01*
X037490Y007330D01*
X037490Y007201D02*
X037810Y007201D01*
X037060Y007330D02*
X036740Y007330D01*
X037060Y007330D02*
X037060Y006970D01*
X036740Y006970D01*
X036740Y007330D01*
X036740Y007201D02*
X037060Y007201D01*
X034310Y002580D02*
X033990Y002580D01*
X034310Y002580D02*
X034310Y002220D01*
X033990Y002220D01*
X033990Y002580D01*
X033990Y002451D02*
X034310Y002451D01*
X033560Y002580D02*
X033240Y002580D01*
X033560Y002580D02*
X033560Y002220D01*
X033240Y002220D01*
X033240Y002580D01*
X033240Y002451D02*
X033560Y002451D01*
D19*
X033471Y014445D02*
X033329Y014445D01*
X033471Y014445D02*
X033471Y014105D01*
X033329Y014105D01*
X033329Y014445D01*
X033329Y014357D02*
X033471Y014357D01*
X033829Y014445D02*
X033971Y014445D01*
X033971Y014105D01*
X033829Y014105D01*
X033829Y014445D01*
X033829Y014357D02*
X033971Y014357D01*
X034329Y014445D02*
X034471Y014445D01*
X034471Y014105D01*
X034329Y014105D01*
X034329Y014445D01*
X034329Y014357D02*
X034471Y014357D01*
X034829Y014445D02*
X034971Y014445D01*
X034971Y014105D01*
X034829Y014105D01*
X034829Y014445D01*
X034829Y014357D02*
X034971Y014357D01*
X034971Y015695D02*
X034829Y015695D01*
X034971Y015695D02*
X034971Y015355D01*
X034829Y015355D01*
X034829Y015695D01*
X034829Y015607D02*
X034971Y015607D01*
X034471Y015695D02*
X034329Y015695D01*
X034471Y015695D02*
X034471Y015355D01*
X034329Y015355D01*
X034329Y015695D01*
X034329Y015607D02*
X034471Y015607D01*
X033971Y015695D02*
X033829Y015695D01*
X033971Y015695D02*
X033971Y015355D01*
X033829Y015355D01*
X033829Y015695D01*
X033829Y015607D02*
X033971Y015607D01*
X033471Y015695D02*
X033329Y015695D01*
X033471Y015695D02*
X033471Y015355D01*
X033329Y015355D01*
X033329Y015695D01*
X033329Y015607D02*
X033471Y015607D01*
X033471Y020195D02*
X033329Y020195D01*
X033471Y020195D02*
X033471Y019855D01*
X033329Y019855D01*
X033329Y020195D01*
X033329Y020107D02*
X033471Y020107D01*
X033829Y020195D02*
X033971Y020195D01*
X033971Y019855D01*
X033829Y019855D01*
X033829Y020195D01*
X033829Y020107D02*
X033971Y020107D01*
X034329Y020195D02*
X034471Y020195D01*
X034471Y019855D01*
X034329Y019855D01*
X034329Y020195D01*
X034329Y020107D02*
X034471Y020107D01*
X034829Y020195D02*
X034971Y020195D01*
X034971Y019855D01*
X034829Y019855D01*
X034829Y020195D01*
X034829Y020107D02*
X034971Y020107D01*
X034971Y021445D02*
X034829Y021445D01*
X034971Y021445D02*
X034971Y021105D01*
X034829Y021105D01*
X034829Y021445D01*
X034829Y021357D02*
X034971Y021357D01*
X034471Y021445D02*
X034329Y021445D01*
X034471Y021445D02*
X034471Y021105D01*
X034329Y021105D01*
X034329Y021445D01*
X034329Y021357D02*
X034471Y021357D01*
X033971Y021445D02*
X033829Y021445D01*
X033971Y021445D02*
X033971Y021105D01*
X033829Y021105D01*
X033829Y021445D01*
X033829Y021357D02*
X033971Y021357D01*
X033471Y021445D02*
X033329Y021445D01*
X033471Y021445D02*
X033471Y021105D01*
X033329Y021105D01*
X033329Y021445D01*
X033329Y021357D02*
X033471Y021357D01*
D20*
X013817Y023827D02*
X013817Y024153D01*
X014543Y024153D01*
X014543Y023827D01*
X013817Y023827D01*
X013817Y024061D02*
X014543Y024061D01*
X013817Y024737D02*
X013817Y025063D01*
X014543Y025063D01*
X014543Y024737D01*
X013817Y024737D01*
X013817Y024971D02*
X014543Y024971D01*
X013817Y025647D02*
X013817Y025973D01*
X014543Y025973D01*
X014543Y025647D01*
X013817Y025647D01*
X013817Y025881D02*
X014543Y025881D01*
D21*
X016256Y025539D02*
X016256Y024261D01*
X016256Y025539D02*
X016984Y025539D01*
X016984Y024261D01*
X016256Y024261D01*
X016256Y024478D02*
X016984Y024478D01*
X016984Y024695D02*
X016256Y024695D01*
X016256Y024912D02*
X016984Y024912D01*
X016984Y025129D02*
X016256Y025129D01*
X016256Y025346D02*
X016984Y025346D01*
D22*
X013095Y027120D02*
X012205Y027120D01*
X012205Y027930D01*
X013095Y027930D01*
X013095Y027120D01*
X013095Y027334D02*
X012205Y027334D01*
X012205Y027548D02*
X013095Y027548D01*
X013095Y027762D02*
X012205Y027762D01*
X010595Y027120D02*
X009705Y027120D01*
X009705Y027930D01*
X010595Y027930D01*
X010595Y027120D01*
X010595Y027334D02*
X009705Y027334D01*
X009705Y027548D02*
X010595Y027548D01*
X010595Y027762D02*
X009705Y027762D01*
D23*
X012277Y023265D02*
X012277Y023033D01*
X011889Y023033D01*
X011889Y023265D01*
X012277Y023265D01*
X012277Y022517D02*
X012277Y022285D01*
X011889Y022285D01*
X011889Y022517D01*
X012277Y022517D01*
X011411Y022659D02*
X011411Y022891D01*
X011411Y022659D02*
X011023Y022659D01*
X011023Y022891D01*
X011411Y022891D01*
X013034Y021389D02*
X013266Y021389D01*
X013034Y021389D02*
X013034Y021777D01*
X013266Y021777D01*
X013266Y021389D01*
X013266Y021630D02*
X013034Y021630D01*
X012892Y020523D02*
X012660Y020523D01*
X012660Y020911D01*
X012892Y020911D01*
X012892Y020523D01*
X012892Y020764D02*
X012660Y020764D01*
X013408Y020523D02*
X013640Y020523D01*
X013408Y020523D02*
X013408Y020911D01*
X013640Y020911D01*
X013640Y020523D01*
X013640Y020764D02*
X013408Y020764D01*
X008640Y021227D02*
X008408Y021227D01*
X008640Y021227D02*
X008640Y020839D01*
X008408Y020839D01*
X008408Y021227D01*
X008408Y021080D02*
X008640Y021080D01*
X007892Y021227D02*
X007660Y021227D01*
X007892Y021227D02*
X007892Y020839D01*
X007660Y020839D01*
X007660Y021227D01*
X007660Y021080D02*
X007892Y021080D01*
X008034Y020361D02*
X008266Y020361D01*
X008266Y019973D01*
X008034Y019973D01*
X008034Y020361D01*
X008034Y020214D02*
X008266Y020214D01*
X005015Y019023D02*
X004783Y019023D01*
X004783Y019411D01*
X005015Y019411D01*
X005015Y019023D01*
X005015Y019264D02*
X004783Y019264D01*
X004267Y019023D02*
X004035Y019023D01*
X004035Y019411D01*
X004267Y019411D01*
X004267Y019023D01*
X004267Y019264D02*
X004035Y019264D01*
X004409Y019889D02*
X004641Y019889D01*
X004409Y019889D02*
X004409Y020277D01*
X004641Y020277D01*
X004641Y019889D01*
X004641Y020130D02*
X004409Y020130D01*
D24*
X004950Y022351D02*
X005600Y022351D01*
X004950Y022351D02*
X004950Y023199D01*
X005600Y023199D01*
X005600Y022351D01*
X005600Y022567D02*
X004950Y022567D01*
X004950Y022783D02*
X005600Y022783D01*
X005600Y022999D02*
X004950Y022999D01*
X004950Y023976D02*
X005600Y023976D01*
X004950Y023976D02*
X004950Y024824D01*
X005600Y024824D01*
X005600Y023976D01*
X005600Y024192D02*
X004950Y024192D01*
X004950Y024408D02*
X005600Y024408D01*
X005600Y024624D02*
X004950Y024624D01*
X006700Y023976D02*
X007350Y023976D01*
X006700Y023976D02*
X006700Y024824D01*
X007350Y024824D01*
X007350Y023976D01*
X007350Y024192D02*
X006700Y024192D01*
X006700Y024408D02*
X007350Y024408D01*
X007350Y024624D02*
X006700Y024624D01*
X006700Y022351D02*
X007350Y022351D01*
X006700Y022351D02*
X006700Y023199D01*
X007350Y023199D01*
X007350Y022351D01*
X007350Y022567D02*
X006700Y022567D01*
X006700Y022783D02*
X007350Y022783D01*
X007350Y022999D02*
X006700Y022999D01*
X009660Y023100D02*
X009660Y022450D01*
X009660Y023100D02*
X010390Y023100D01*
X010390Y022450D01*
X009660Y022450D01*
X009660Y022666D02*
X010390Y022666D01*
X010390Y022882D02*
X009660Y022882D01*
X009660Y023098D02*
X010390Y023098D01*
X009660Y023700D02*
X009660Y024350D01*
X010390Y024350D01*
X010390Y023700D01*
X009660Y023700D01*
X009660Y023916D02*
X010390Y023916D01*
X010390Y024132D02*
X009660Y024132D01*
X009660Y024348D02*
X010390Y024348D01*
D25*
X025275Y025025D03*
D26*
X023275Y026150D03*
X025275Y027400D03*
D27*
X020150Y011650D03*
D28*
X019150Y011650D03*
X018150Y011650D03*
X017150Y011650D03*
X016150Y011650D03*
X015150Y011650D03*
X014150Y011650D03*
X013150Y011650D03*
X012150Y011650D03*
X011150Y011650D03*
X010150Y011650D03*
X009150Y011650D03*
X008150Y011650D03*
X007150Y011650D03*
X007150Y017650D03*
X008150Y017650D03*
X009150Y017650D03*
X010150Y017650D03*
X011150Y017650D03*
X012150Y017650D03*
X013150Y017650D03*
X014150Y017650D03*
X015150Y017650D03*
X016150Y017650D03*
X017150Y017650D03*
X018150Y017650D03*
X019150Y017650D03*
X020150Y017650D03*
D29*
X022025Y014650D03*
X037810Y015470D03*
X038900Y016015D03*
X037810Y016560D03*
X037810Y017650D03*
X038900Y018195D03*
X038900Y017105D03*
X037810Y018740D03*
X037810Y019830D03*
X038900Y019285D03*
X003900Y014650D03*
D30*
X020150Y021150D03*
X022025Y021150D03*
X034150Y003525D03*
D31*
X034150Y004525D03*
X022025Y022150D03*
X020150Y022150D03*
D32*
X039055Y008280D02*
X039745Y008280D01*
X039055Y008280D02*
X039055Y008280D01*
X039745Y008280D01*
X039745Y008280D01*
X039745Y007965D02*
X039055Y007965D01*
X039055Y007965D01*
X039745Y007965D01*
X039745Y007965D01*
X039745Y007650D02*
X039055Y007650D01*
X039055Y007650D01*
X039745Y007650D01*
X039745Y007650D01*
X039745Y007335D02*
X039055Y007335D01*
X039055Y007335D01*
X039745Y007335D01*
X039745Y007335D01*
X039745Y007020D02*
X039055Y007020D01*
X039055Y007020D01*
X039745Y007020D01*
X039745Y007020D01*
D33*
X040018Y005389D02*
X038782Y005389D01*
X038782Y006053D01*
X040018Y006053D01*
X040018Y005389D01*
X040018Y005610D02*
X038782Y005610D01*
X038782Y005831D02*
X040018Y005831D01*
X040018Y006052D02*
X038782Y006052D01*
X040377Y005389D02*
X041809Y005389D01*
X040377Y005389D02*
X040377Y006053D01*
X041809Y006053D01*
X041809Y005389D01*
X041809Y005610D02*
X040377Y005610D01*
X040377Y005831D02*
X041809Y005831D01*
X041809Y006052D02*
X040377Y006052D01*
X040377Y009247D02*
X041809Y009247D01*
X040377Y009247D02*
X040377Y009911D01*
X041809Y009911D01*
X041809Y009247D01*
X041809Y009468D02*
X040377Y009468D01*
X040377Y009689D02*
X041809Y009689D01*
X041809Y009910D02*
X040377Y009910D01*
X040018Y009247D02*
X038782Y009247D01*
X038782Y009911D01*
X040018Y009911D01*
X040018Y009247D01*
X040018Y009468D02*
X038782Y009468D01*
X038782Y009689D02*
X040018Y009689D01*
X040018Y009910D02*
X038782Y009910D01*
D34*
X038355Y012745D03*
X038355Y022555D03*
D35*
X031424Y022800D02*
X031376Y022800D01*
X031424Y022800D02*
X031424Y022122D01*
X031376Y022122D01*
X031376Y022800D01*
X031376Y022390D02*
X031424Y022390D01*
X031424Y022658D02*
X031376Y022658D01*
X030924Y022800D02*
X030876Y022800D01*
X030924Y022800D02*
X030924Y022122D01*
X030876Y022122D01*
X030876Y022800D01*
X030876Y022390D02*
X030924Y022390D01*
X030924Y022658D02*
X030876Y022658D01*
X030424Y022800D02*
X030376Y022800D01*
X030424Y022800D02*
X030424Y022122D01*
X030376Y022122D01*
X030376Y022800D01*
X030376Y022390D02*
X030424Y022390D01*
X030424Y022658D02*
X030376Y022658D01*
X029924Y022800D02*
X029876Y022800D01*
X029924Y022800D02*
X029924Y022122D01*
X029876Y022122D01*
X029876Y022800D01*
X029876Y022390D02*
X029924Y022390D01*
X029924Y022658D02*
X029876Y022658D01*
X029424Y022800D02*
X029376Y022800D01*
X029424Y022800D02*
X029424Y022122D01*
X029376Y022122D01*
X029376Y022800D01*
X029376Y022390D02*
X029424Y022390D01*
X029424Y022658D02*
X029376Y022658D01*
X028924Y022800D02*
X028876Y022800D01*
X028924Y022800D02*
X028924Y022122D01*
X028876Y022122D01*
X028876Y022800D01*
X028876Y022390D02*
X028924Y022390D01*
X028924Y022658D02*
X028876Y022658D01*
X028424Y022800D02*
X028376Y022800D01*
X028424Y022800D02*
X028424Y022122D01*
X028376Y022122D01*
X028376Y022800D01*
X028376Y022390D02*
X028424Y022390D01*
X028424Y022658D02*
X028376Y022658D01*
X027924Y022800D02*
X027876Y022800D01*
X027924Y022800D02*
X027924Y022122D01*
X027876Y022122D01*
X027876Y022800D01*
X027876Y022390D02*
X027924Y022390D01*
X027924Y022658D02*
X027876Y022658D01*
X027876Y019178D02*
X027924Y019178D01*
X027924Y018500D01*
X027876Y018500D01*
X027876Y019178D01*
X027876Y018768D02*
X027924Y018768D01*
X027924Y019036D02*
X027876Y019036D01*
X028376Y019178D02*
X028424Y019178D01*
X028424Y018500D01*
X028376Y018500D01*
X028376Y019178D01*
X028376Y018768D02*
X028424Y018768D01*
X028424Y019036D02*
X028376Y019036D01*
X028876Y019178D02*
X028924Y019178D01*
X028924Y018500D01*
X028876Y018500D01*
X028876Y019178D01*
X028876Y018768D02*
X028924Y018768D01*
X028924Y019036D02*
X028876Y019036D01*
X029376Y019178D02*
X029424Y019178D01*
X029424Y018500D01*
X029376Y018500D01*
X029376Y019178D01*
X029376Y018768D02*
X029424Y018768D01*
X029424Y019036D02*
X029376Y019036D01*
X029876Y019178D02*
X029924Y019178D01*
X029924Y018500D01*
X029876Y018500D01*
X029876Y019178D01*
X029876Y018768D02*
X029924Y018768D01*
X029924Y019036D02*
X029876Y019036D01*
X030376Y019178D02*
X030424Y019178D01*
X030424Y018500D01*
X030376Y018500D01*
X030376Y019178D01*
X030376Y018768D02*
X030424Y018768D01*
X030424Y019036D02*
X030376Y019036D01*
X030876Y019178D02*
X030924Y019178D01*
X030924Y018500D01*
X030876Y018500D01*
X030876Y019178D01*
X030876Y018768D02*
X030924Y018768D01*
X030924Y019036D02*
X030876Y019036D01*
X031376Y019178D02*
X031424Y019178D01*
X031424Y018500D01*
X031376Y018500D01*
X031376Y019178D01*
X031376Y018768D02*
X031424Y018768D01*
X031424Y019036D02*
X031376Y019036D01*
D36*
X016074Y028149D02*
X015550Y028149D01*
X016074Y028149D02*
X016074Y027151D01*
X015550Y027151D01*
X015550Y028149D01*
X015550Y027375D02*
X016074Y027375D01*
X016074Y027599D02*
X015550Y027599D01*
X015550Y027823D02*
X016074Y027823D01*
X016074Y028047D02*
X015550Y028047D01*
X014500Y028149D02*
X013976Y028149D01*
X014500Y028149D02*
X014500Y027151D01*
X013976Y027151D01*
X013976Y028149D01*
X013976Y027375D02*
X014500Y027375D01*
X014500Y027599D02*
X013976Y027599D01*
X013976Y027823D02*
X014500Y027823D01*
X014500Y028047D02*
X013976Y028047D01*
D37*
X017973Y027413D02*
X018533Y027413D01*
X017973Y027413D02*
X017973Y027855D01*
X018533Y027855D01*
X018533Y027413D01*
X018533Y027640D02*
X017973Y027640D01*
X017973Y025445D02*
X018533Y025445D01*
X017973Y025445D02*
X017973Y025887D01*
X018533Y025887D01*
X018533Y025445D01*
X018533Y025672D02*
X017973Y025672D01*
X021517Y025445D02*
X022077Y025445D01*
X021517Y025445D02*
X021517Y025887D01*
X022077Y025887D01*
X022077Y025445D01*
X022077Y025672D02*
X021517Y025672D01*
X021517Y027413D02*
X022077Y027413D01*
X021517Y027413D02*
X021517Y027855D01*
X022077Y027855D01*
X022077Y027413D01*
X022077Y027640D02*
X021517Y027640D01*
D38*
X032275Y022650D03*
X032237Y005032D03*
D39*
X033400Y011400D03*
D40*
X034400Y011400D03*
X034400Y012400D03*
X033400Y012400D03*
D41*
X026040Y020370D03*
X024260Y020370D03*
X024260Y022930D03*
X026040Y022930D03*
D42*
X034525Y027525D03*
M02*
